<svg fill="none" height="300" viewBox="0 0 64 64" width="300" xmlns="http://www.w3.org/2000/svg" version="1.1" xmlns:xlink="http://www.w3.org/1999/xlink" xmlns:svgjs="http://svgjs.dev/svgjs"><g transform="matrix(1,0,0,1,0,0)"><g fill="#000"><path d="m17 18c-1.1046 0-2 .8954-2 2s.8954 2 2 2h30c1.1046 0 2-.8954 2-2s-.8954-2-2-2z" fill="#ffdf30ff" data-original-color="#000000ff" stroke="none"/><path d="m24 30c-1.1046 0-2 .8954-2 2s.8954 2 2 2h16c1.1046 0 2-.8954 2-2s-.8954-2-2-2z" fill="#ffdf30ff" data-original-color="#000000ff" stroke="none"/><path d="m17.5 42c-1.1046 0-2 .8954-2 2s.8954 2 2 2h29c1.1046 0 2-.8954 2-2s-.8954-2-2-2z" fill="#ffdf30ff" data-original-color="#000000ff" stroke="none"/><path clip-rule="evenodd" d="m20 2c-9.9411 0-18 8.0589-18 18v24c0 9.9411 8.0589 18 18 18h24c9.9411 0 18-8.0589 18-18v-24c0-9.9411-8.0589-18-18-18zm-14 18c0-7.732 6.268-14 14-14h24c7.732 0 14 6.268 14 14v24c0 7.732-6.268 14-14 14h-24c-7.732 0-14-6.268-14-14z" fill-rule="evenodd" fill="#ffdf30ff" data-original-color="#000000ff" stroke="none"/></g></g></svg>