<svg id="glipy_copy_3" viewBox="0 0 64 64" xmlns="http://www.w3.org/2000/svg" data-name="glipy copy 3" width="300" height="300" version="1.1" xmlns:xlink="http://www.w3.org/1999/xlink" xmlns:svgjs="http://svgjs.dev/svgjs"><g transform="matrix(1,0,0,1,0,0)"><path d="m32 2a30 30 0 1 0 30 30 30.03661 30.03661 0 0 0 -30-30zm-.44 9.26 8.41 8.41a2.18537 2.18537 0 0 1 -3.09 3.09c-.35-.34-1.23-1.22-1.58-1.58l-5.25-5.25c-.35-.35-1.23-1.22-1.58-1.57a2.18948 2.18948 0 0 1 3.09-3.1zm-3.53 4.67 7.27 7.27c-2.96 2.97-6.52 6.52-9.49 9.49l-7.27-7.27zm-14.09 9.93a2.13651 2.13651 0 0 1 3.03 0c.34.34 1.22 1.23 1.57 1.58l5.25 5.25c.77.9 2.25 1.76 2.21 3.09a2.20937 2.20937 0 0 1 -3.72 1.58l-8.41-8.41a2.14738 2.14738 0 0 1 .07-3.09zm19.41 21.08h-20.65a.71513.71513 0 0 1 0-1.43h.75v-1.65a2.92555 2.92555 0 0 1 2.92-2.93h13.31a2.9341 2.9341 0 0 1 2.93 2.93v1.65h.74a.715.715 0 0 1 0 1.43zm12.42 1.41-8.92-8.94a.69169.69169 0 0 1 0-1l.28-.28-7.37-7.36 2.6-2.61 1.02-1.01 7.37 7.36c.32-.41.82-.71 1.27-.27l8.94 8.92a3.57107 3.57107 0 0 1 1.04 2.53c.04 3.13-4 4.96-6.23 2.66z" fill="#ffdf30ff" data-original-color="#000000ff" stroke="none"/></g></svg>