<svg id="Layer_1" enable-background="new 0 0 512 512" height="300" viewBox="0 0 512 512" width="300" xmlns="http://www.w3.org/2000/svg" version="1.1" xmlns:xlink="http://www.w3.org/1999/xlink" xmlns:svgjs="http://svgjs.dev/svgjs"><g transform="matrix(1,0,0,1,0,0)"><path clip-rule="evenodd" d="m256 16c132.549 0 240 107.451 240 240s-107.452 240-240 240-240-107.451-240-240 107.451-240 240-240zm-31.189 316.575c-1.255.614-2.509 1.233-3.791 1.865l-26.725 15.441 34.77 34.767c3.381 3.39 8.89 3.39 12.299 0l11.617-11.617c3.381-3.384 3.381-8.909 0-12.293zm173.767-99.756v-.683c-.139-2.8-1.97-5.357-4.8-6.276l-25.28-8.214c-3.654-1.189-7.581.805-8.754 4.45-1.2 3.652.791 7.57 4.445 8.751l25.307 8.219c3.654 1.189 7.554-.804 8.754-4.456.192-.593.298-1.195.328-1.791zm-228.09-.624 50.177 86.93c43.224-20.633 83.857-28.383 121.463-28.4 2.127 0 3.954-1.055 5.018-2.899s1.064-3.954 0-5.798l-81.293-140.819c-1.064-1.844-2.891-2.896-5.018-2.896-2.127-.008-3.954 1.047-5.018 2.891-18.844 32.576-45.869 63.869-85.329 90.991zm-45.978 84.504 6.054 10.526c10.336 17.892 33.434 24.077 51.323 13.747l26.534-15.312-49.714-86.115-26.534 15.312c-17.889 10.33-24.08 33.423-13.744 51.315zm202.183-186.386-5.536 26.013c-.791 3.75 1.609 7.436 5.372 8.238 3.736.793 7.418-1.601 8.236-5.35l5.536-26.013c.791-3.755-1.609-7.442-5.372-8.239-3.736-.798-7.418 1.602-8.236 5.351zm38.451 58.346 22.853-13.191c3.327-1.92 4.473-6.174 2.536-9.501-1.909-3.327-6.163-4.469-9.49-2.549l-22.853 13.191c-3.327 1.92-4.472 6.174-2.563 9.501 1.936 3.326 6.191 4.468 9.517 2.549zm-34.442 37.079c8.699-7.638 11.126-20.671 5.127-31.058-6-10.379-18.49-14.791-29.452-11.088z" fill-rule="evenodd" fill="#ffdf30ff" data-original-color="#000000ff" stroke="none"/></g></svg>