<svg width="234" height="38" viewBox="0 0 234 38" fill="none" xmlns="http://www.w3.org/2000/svg">
<rect y="4" width="111" height="30" fill="#002540"/>
<path d="M34.12 25.192C33.3147 25.192 32.568 24.976 31.88 24.544C31.192 24.1067 30.6373 23.4427 30.216 22.552C29.8 21.6613 29.592 20.568 29.592 19.272C29.592 18.0933 29.8 17.0827 30.216 16.24C30.632 15.392 31.1947 14.7493 31.904 14.312C32.6187 13.8747 33.416 13.656 34.296 13.656C34.8347 13.656 35.2907 13.7093 35.664 13.816C36.0373 13.9173 36.3307 14.0373 36.544 14.176C36.7573 14.3093 36.9627 14.4667 37.16 14.648L36.264 16.328C36.0773 16.1253 35.912 15.9707 35.768 15.864C35.624 15.752 35.44 15.664 35.216 15.6C34.9973 15.5307 34.7173 15.496 34.376 15.496C33.8427 15.496 33.384 15.6533 33 15.968C32.616 16.2773 32.3227 16.7093 32.12 17.264C31.9173 17.8133 31.816 18.4453 31.816 19.16C31.816 20.056 31.92 20.8213 32.128 21.456C32.3413 22.0907 32.6267 22.568 32.984 22.888C33.3467 23.208 33.752 23.368 34.2 23.368C34.6747 23.368 35.0933 23.3013 35.456 23.168C35.824 23.0347 36.104 22.8667 36.296 22.664L37.176 24.248C36.8507 24.5147 36.456 24.7387 35.992 24.92C35.5333 25.1013 34.9093 25.192 34.12 25.192ZM38.5575 13.608H40.7975V15.736H38.5575V13.608ZM38.6375 17.032H40.7175V25H38.6375V17.032ZM43.0259 17.032H44.8339L44.9299 18.44C45.1005 18.0293 45.3699 17.6773 45.7379 17.384C46.1059 17.0853 46.6259 16.936 47.2979 16.936C47.5645 16.936 47.8099 16.9787 48.0339 17.064L47.5859 19.16C47.4952 19.0693 47.3859 19.0053 47.2579 18.968C47.1352 18.9253 46.9832 18.904 46.8019 18.904C46.4285 18.904 46.1059 18.984 45.8339 19.144C45.5672 19.2987 45.3645 19.48 45.2259 19.688C45.0925 19.896 45.0259 20.0667 45.0259 20.2V25H43.0259V17.032ZM52.195 25.192C51.379 25.192 50.699 25.008 50.155 24.64C49.611 24.2667 49.2083 23.768 48.947 23.144C48.691 22.52 48.563 21.8213 48.563 21.048C48.563 20.2907 48.707 19.592 48.995 18.952C49.283 18.312 49.7097 17.8 50.275 17.416C50.8403 17.032 51.5177 16.84 52.307 16.84C52.7977 16.84 53.2243 16.8933 53.587 17C53.955 17.1013 54.307 17.288 54.643 17.56L53.987 19.256C53.8323 19.0267 53.603 18.8453 53.299 18.712C53.0003 18.5733 52.707 18.504 52.419 18.504C51.2563 18.504 50.675 19.3467 50.675 21.032C50.675 21.912 50.8163 22.5547 51.099 22.96C51.387 23.36 51.827 23.56 52.419 23.56C52.7763 23.56 53.1017 23.4933 53.395 23.36C53.6937 23.2267 53.9283 23.064 54.099 22.872L54.707 24.296C54.5897 24.424 54.411 24.5573 54.171 24.696C53.9363 24.8293 53.6483 24.944 53.307 25.04C52.9657 25.1413 52.595 25.192 52.195 25.192ZM62.5978 17.032V25H60.7898L60.7498 23.968C60.5151 24.336 60.2244 24.632 59.8778 24.856C59.5364 25.08 59.0991 25.192 58.5658 25.192C57.7764 25.192 57.1871 24.9413 56.7978 24.44C56.4084 23.9387 56.2138 23.224 56.2138 22.296V17.032H58.2138V22.12C58.2138 22.584 58.2964 22.9493 58.4618 23.216C58.6324 23.4773 58.9018 23.608 59.2698 23.608C59.5204 23.608 59.7444 23.5467 59.9418 23.424C60.1444 23.296 60.3044 23.12 60.4218 22.896C60.5391 22.6667 60.5978 22.408 60.5978 22.12V17.032H62.5978ZM64.9973 12.84H66.9493V25H64.9973V12.84ZM70.7215 25.224C70.2468 25.224 69.8468 25.1173 69.5215 24.904C69.1962 24.6907 68.9508 24.4027 68.7855 24.04C68.6255 23.6773 68.5455 23.272 68.5455 22.824C68.5455 22.4347 68.6735 22.048 68.9295 21.664C69.1908 21.2747 69.6522 20.944 70.3135 20.672C70.9748 20.4 71.8682 20.264 72.9935 20.264V19.896C72.9935 19.4587 72.8868 19.12 72.6735 18.88C72.4655 18.64 72.0975 18.52 71.5695 18.52C71.1535 18.52 70.7455 18.592 70.3455 18.736C69.9508 18.8747 69.6602 19.048 69.4735 19.256L68.8335 17.72C69.1962 17.4747 69.6468 17.2667 70.1855 17.096C70.7242 16.9253 71.2975 16.84 71.9055 16.84C72.6682 16.84 73.2708 16.9573 73.7135 17.192C74.1615 17.4267 74.4762 17.7573 74.6575 18.184C74.8388 18.6107 74.9295 19.1387 74.9295 19.768V25H73.2175L73.0735 23.864C72.7908 24.3227 72.4548 24.664 72.0655 24.888C71.6815 25.112 71.2335 25.224 70.7215 25.224ZM71.5695 23.688C71.8148 23.688 72.0735 23.5893 72.3455 23.392C72.6175 23.1947 72.8335 22.9467 72.9935 22.648V21.512C72.9188 21.5013 72.7908 21.496 72.6095 21.496C72.0708 21.496 71.5882 21.5867 71.1615 21.768C70.7402 21.944 70.5295 22.232 70.5295 22.632C70.5295 23.0107 70.6122 23.2827 70.7775 23.448C70.9482 23.608 71.2122 23.688 71.5695 23.688ZM76.9946 17.032H78.8026L78.8986 18.44C79.0693 18.0293 79.3386 17.6773 79.7066 17.384C80.0746 17.0853 80.5946 16.936 81.2666 16.936C81.5333 16.936 81.7786 16.9787 82.0026 17.064L81.5546 19.16C81.464 19.0693 81.3546 19.0053 81.2266 18.968C81.104 18.9253 80.952 18.904 80.7706 18.904C80.3973 18.904 80.0746 18.984 79.8026 19.144C79.536 19.2987 79.3333 19.48 79.1946 19.688C79.0613 19.896 78.9946 20.0667 78.9946 20.2V25H76.9946V17.032ZM97.3738 24.168L95.9978 25.336L95.0538 24.28C94.6591 24.5733 94.2484 24.7947 93.8218 24.944C93.4004 25.088 92.9098 25.16 92.3498 25.16C91.5764 25.16 90.9284 25.0267 90.4058 24.76C89.8831 24.4933 89.4938 24.1493 89.2378 23.728C88.9871 23.3067 88.8618 22.8667 88.8618 22.408C88.8618 21.944 88.9391 21.5413 89.0938 21.2C89.2484 20.8533 89.4644 20.552 89.7418 20.296C90.0191 20.0347 90.3764 19.768 90.8138 19.496C90.3711 19.0107 90.0218 18.5413 89.7658 18.088C89.5151 17.6293 89.3898 17.1173 89.3898 16.552C89.3898 15.9387 89.5364 15.4053 89.8298 14.952C90.1284 14.4987 90.5151 14.1547 90.9898 13.92C91.4644 13.68 91.9658 13.56 92.4938 13.56C93.0378 13.56 93.5311 13.6587 93.9738 13.856C94.4164 14.0533 94.7684 14.352 95.0298 14.752C95.2911 15.1467 95.4218 15.6347 95.4218 16.216C95.4218 16.8293 95.2378 17.44 94.8698 18.048C94.5018 18.656 93.9871 19.1813 93.3258 19.624C94.1578 20.5947 94.8031 21.3307 95.2618 21.832C95.4591 21.5493 95.6324 21.2187 95.7818 20.84C95.9364 20.4613 96.0511 20.088 96.1258 19.72L97.6938 20.664C97.6084 21.0747 97.4671 21.4533 97.2698 21.8C97.0778 22.1413 96.7924 22.5733 96.4138 23.096L97.3738 24.168ZM92.4298 14.952C92.1791 14.952 91.9578 15.0213 91.7658 15.16C91.5791 15.2987 91.4351 15.48 91.3338 15.704C91.2324 15.928 91.1818 16.168 91.1818 16.424C91.1818 17.0373 91.5818 17.7787 92.3818 18.648C92.7658 18.3173 93.0591 17.952 93.2618 17.552C93.4644 17.152 93.5658 16.7333 93.5658 16.296C93.5658 15.896 93.4698 15.5733 93.2778 15.328C93.0911 15.0773 92.8084 14.952 92.4298 14.952ZM92.2858 23.592C92.8938 23.592 93.4538 23.4107 93.9658 23.048L91.7098 20.472C91.3791 20.7333 91.1444 20.992 91.0058 21.248C90.8671 21.4987 90.7978 21.7893 90.7978 22.12C90.7978 22.328 90.8431 22.544 90.9338 22.768C91.0244 22.992 91.1791 23.1867 91.3978 23.352C91.6218 23.512 91.9178 23.592 92.2858 23.592Z" fill="white"/>
<path d="M18.8835 14.9112C18.8461 14.9112 18.8086 14.8765 18.8086 14.8765C20.3074 12.6558 21.7687 10.4351 23.8296 8.17969L24.579 8.73486C22.8179 11.025 20.7945 13.0028 18.8835 14.9112Z" fill="white"/>
<path d="M26.6043 16.5416L26.4169 15.8477C25.6301 15.8477 24.8057 16.0905 24.0189 16.264C22.7449 16.5416 21.4709 16.7498 20.2344 17.2009V17.2356C21.5458 17.2356 22.8573 17.0621 24.1687 16.9233C24.9556 16.8192 25.8174 16.7845 26.6043 16.5416Z" fill="white"/>
<path d="M18.4134 8.1388L17.7015 8C17.4017 8.65927 17.3268 9.42263 17.1769 10.1166C16.9896 11.2616 16.7273 12.4414 16.6523 13.5864C16.6523 13.6211 16.6898 13.6211 16.6898 13.5864C17.2144 12.5455 17.5141 11.3657 17.8889 10.2554C18.1137 9.56142 18.376 8.86747 18.4134 8.1388Z" fill="white"/>
<path d="M22.6278 20.6356C23.0774 20.254 23.1149 19.5948 22.7027 19.1784L14.8722 11.1985C14.46 10.7475 13.7481 10.7128 13.2985 11.0944C12.8864 11.4414 12.8115 12.0312 13.1112 12.4475L10.0389 18.3111L7.37879 20.5316C7.04159 20.8438 6.85424 21.2602 6.85424 21.7112L6.89172 22.4398L6.47957 22.7868C5.8801 23.2725 5.84264 24.1746 6.36718 24.7297L7.26639 25.6318C7.82839 26.2216 8.76507 26.2563 9.40201 25.7359L9.81413 25.3889L10.5635 25.493C10.7883 25.5277 11.0131 25.5277 11.2004 25.493L15.3218 29.6911C15.6964 30.0728 16.3334 30.1075 16.7455 29.7605L17.27 29.3095C17.7197 28.9625 17.7196 28.338 17.3075 27.9911C16.5332 27.2509 15.9212 26.4298 15.4716 25.5277L16.0336 25.042C16.4083 24.7297 16.4458 24.2093 16.1086 23.8623C15.7714 23.5154 15.2094 23.4807 14.8347 23.7929C14.7598 23.4922 14.7098 23.1915 14.6848 22.8908L21.0542 20.5663C21.4289 21.0173 22.1407 21.0173 22.6278 20.6356Z" fill="#00203F"/>
<path d="M10.6363 25.1271L9.73705 24.9884C9.68709 24.9884 9.62464 25.0115 9.5497 25.0577L9.06259 25.4741C8.65042 25.8211 7.97595 25.7864 7.60125 25.4047L6.70198 24.4679C6.32728 24.0862 6.32729 23.4616 6.77693 23.1146L7.26403 22.6983C7.31399 22.652 7.33898 22.5942 7.33898 22.5248L7.30149 21.7267C7.26402 21.4144 7.4139 21.1021 7.67619 20.8592L10.1867 18.7773L14.0836 22.7677L11.5731 24.8843C11.4981 24.9536 11.4107 24.9999 11.3108 25.023L8.50054 22.1431C8.4256 22.039 8.27571 22.039 8.1633 22.1084C8.08836 22.2125 8.08836 22.3166 8.1633 22.4207L10.8237 25.1618C10.7862 25.1271 10.7113 25.1271 10.6363 25.1271Z" fill="white"/>
<path d="M11.8889 25.1419L14.2495 23.1641C14.4368 24.4132 14.8865 25.6276 15.6733 26.738L14.212 27.9524L11.6641 25.3154C11.739 25.2691 11.8139 25.2113 11.8889 25.1419Z" fill="#F50000"/>
<path d="M15.0956 28.8942L14.4961 28.2696L15.92 27.0898C16.0948 27.3212 16.2697 27.5409 16.4445 27.7491L15.0956 28.8942Z" fill="white"/>
<path d="M10.5 18.4253L13.4599 12.8047L20.7285 20.2642L14.4715 22.5194L10.5 18.4253Z" fill="#F50000"/>
<path d="M8.9727 24.3001L8.11089 24.994C8.03595 25.0634 8.03595 25.2022 8.11089 25.2716C8.18583 25.3757 8.33571 25.3757 8.41065 25.3063L9.27245 24.6124C9.34739 24.5083 9.34739 24.4042 9.27245 24.3001C9.19751 24.2307 9.04764 24.196 8.9727 24.3001Z" fill="#00203F"/>
<path d="M8.32498 23.6458L7.50063 24.3398C7.42569 24.4092 7.38822 24.548 7.50063 24.6174C7.57557 24.7215 7.72545 24.7214 7.80039 24.652L8.62473 23.9581C8.73714 23.8887 8.73716 23.7499 8.66222 23.6458C8.58728 23.5764 8.43739 23.5764 8.32498 23.6458Z" fill="#00203F"/>
<path d="M7.74685 23.0327L6.92251 23.7267C6.84757 23.7961 6.8101 23.9349 6.92251 24.039C6.99745 24.1084 7.14732 24.1084 7.22226 24.039L8.04661 23.345C8.15902 23.2756 8.15901 23.1368 8.08407 23.0674C8.00913 22.9633 7.85926 22.9633 7.74685 23.0327Z" fill="#00203F"/>
<path d="M13.5992 11.4062C13.8615 11.198 14.3111 11.198 14.5359 11.4756L22.3665 19.4555C22.5913 19.6984 22.5913 20.1147 22.329 20.3229C22.0293 20.5658 21.6172 20.5311 21.3549 20.2882C21.0177 19.9413 13.8615 12.6205 13.5618 12.3083C13.2995 12.0307 13.337 11.6491 13.5992 11.4062Z" fill="white"/>
<path d="M16.9722 28.9915L16.4101 29.4773C16.1853 29.6508 15.8481 29.6508 15.6607 29.4426L15.3984 29.1997L16.7473 28.0547C16.8223 28.1241 16.8972 28.1935 16.9722 28.2629C17.197 28.4711 17.197 28.8181 16.9722 28.9915Z" fill="#F50000"/>
<path d="M15.1288 24.1236C15.3161 23.9848 15.5784 23.9848 15.7658 24.1583C15.9156 24.3317 15.9156 24.6093 15.7283 24.7481L15.2786 25.1298C15.1537 24.8522 15.0413 24.5746 14.9414 24.2971L15.1288 24.1236Z" fill="white"/>
<path d="M14.2272 14.8296C14.1523 14.9337 14.1148 15.0378 14.2272 15.1419L18.4238 19.4445C18.4988 19.5486 18.6487 19.5486 18.7236 19.4792C18.836 19.3751 18.836 19.271 18.7611 19.1669L14.5644 14.8643C14.452 14.7602 14.3396 14.7602 14.2272 14.8296Z" fill="#00203F"/>
<path d="M14.5709 16.7395C14.496 16.8089 14.4585 16.9477 14.5709 17.0171L16.3695 18.8908C16.4444 18.9602 16.5943 18.9602 16.6693 18.8908C16.7817 18.8215 16.7817 18.6827 16.7067 18.6133L14.9082 16.7395C14.7958 16.6702 14.6834 16.6702 14.5709 16.7395Z" fill="#00203F"/>
<path d="M14.1991 17.9234C14.0867 18.0275 14.0867 18.1316 14.1616 18.2357L15.0609 19.1378C15.1733 19.2419 15.2857 19.2419 15.3981 19.1725C15.4731 19.1031 15.5105 18.9643 15.3981 18.8602L14.4988 17.9581C14.4239 17.854 14.274 17.854 14.1991 17.9234Z" fill="#00203F"/>
<path d="M93 4H136V34H93L109.614 19L93 4Z" fill="#FFDF30"/>
<g filter="url(#filter0_dddd_1576_11604)">
<path d="M205.056 34H116V4H205.056L221 19L205.056 34Z" fill="#FFDF30"/>
</g>
<path d="M122.504 15.656H119.928V25H117.864V15.656H115.288V13.848H122.504V15.656ZM123.182 17.032H124.99L125.086 18.44C125.257 18.0293 125.526 17.6773 125.894 17.384C126.262 17.0853 126.782 16.936 127.454 16.936C127.721 16.936 127.966 16.9787 128.19 17.064L127.742 19.16C127.651 19.0693 127.542 19.0053 127.414 18.968C127.291 18.9253 127.139 18.904 126.958 18.904C126.585 18.904 126.262 18.984 125.99 19.144C125.723 19.2987 125.521 19.48 125.382 19.688C125.249 19.896 125.182 20.0667 125.182 20.2V25H123.182V17.032ZM130.972 25.224C130.497 25.224 130.097 25.1173 129.772 24.904C129.446 24.6907 129.201 24.4027 129.036 24.04C128.876 23.6773 128.796 23.272 128.796 22.824C128.796 22.4347 128.924 22.048 129.18 21.664C129.441 21.2747 129.902 20.944 130.564 20.672C131.225 20.4 132.118 20.264 133.244 20.264V19.896C133.244 19.4587 133.137 19.12 132.924 18.88C132.716 18.64 132.348 18.52 131.82 18.52C131.404 18.52 130.996 18.592 130.596 18.736C130.201 18.8747 129.91 19.048 129.724 19.256L129.084 17.72C129.446 17.4747 129.897 17.2667 130.436 17.096C130.974 16.9253 131.548 16.84 132.156 16.84C132.918 16.84 133.521 16.9573 133.964 17.192C134.412 17.4267 134.726 17.7573 134.908 18.184C135.089 18.6107 135.18 19.1387 135.18 19.768V25H133.468L133.324 23.864C133.041 24.3227 132.705 24.664 132.316 24.888C131.932 25.112 131.484 25.224 130.972 25.224ZM131.82 23.688C132.065 23.688 132.323 23.5893 132.595 23.392C132.868 23.1947 133.084 22.9467 133.244 22.648V21.512C133.169 21.5013 133.041 21.496 132.86 21.496C132.321 21.496 131.838 21.5867 131.412 21.768C130.99 21.944 130.78 22.232 130.78 22.632C130.78 23.0107 130.862 23.2827 131.028 23.448C131.198 23.608 131.462 23.688 131.82 23.688ZM139.997 25.224C139.357 25.224 138.797 25.0507 138.317 24.704C137.842 24.3573 137.474 23.8693 137.213 23.24C136.957 22.6053 136.829 21.8693 136.829 21.032C136.829 19.6987 137.098 18.6667 137.637 17.936C138.181 17.2053 138.978 16.84 140.029 16.84C140.578 16.84 141.039 16.976 141.413 17.248C141.786 17.52 142.029 17.9067 142.141 18.408L141.997 17.24V12.84H143.885V25H142.141V23.368C141.991 23.9387 141.733 24.392 141.365 24.728C140.997 25.0587 140.541 25.224 139.997 25.224ZM140.461 23.64C140.727 23.64 140.973 23.5493 141.197 23.368C141.426 23.1867 141.607 22.904 141.741 22.52C141.879 22.1307 141.949 21.6453 141.949 21.064C141.949 20.2213 141.829 19.576 141.589 19.128C141.349 18.68 140.989 18.456 140.509 18.456C140.231 18.456 139.97 18.5387 139.725 18.704C139.485 18.8693 139.285 19.144 139.125 19.528C138.97 19.912 138.893 20.4133 138.893 21.032C138.893 21.6027 138.959 22.0827 139.093 22.472C139.231 22.8613 139.418 23.1547 139.653 23.352C139.893 23.544 140.162 23.64 140.461 23.64ZM149.229 25.208C148.37 25.208 147.661 25.0267 147.101 24.664C146.541 24.296 146.13 23.8053 145.868 23.192C145.613 22.5787 145.485 21.8853 145.485 21.112C145.485 20.3227 145.629 19.6053 145.917 18.96C146.21 18.3093 146.637 17.7947 147.197 17.416C147.757 17.032 148.423 16.84 149.197 16.84C150.349 16.84 151.173 17.1733 151.669 17.84C152.165 18.5013 152.413 19.4907 152.413 20.808C152.413 21.064 152.402 21.352 152.381 21.672H147.581C147.613 22.3173 147.791 22.816 148.117 23.168C148.447 23.5147 148.93 23.688 149.565 23.688C149.895 23.688 150.25 23.616 150.629 23.472C151.007 23.3227 151.287 23.144 151.469 22.936L152.109 24.456C151.357 24.9573 150.397 25.208 149.229 25.208ZM150.381 20.424C150.381 19.64 150.282 19.1013 150.085 18.808C149.893 18.5093 149.613 18.36 149.245 18.36C148.727 18.36 148.325 18.552 148.037 18.936C147.754 19.32 147.597 19.816 147.565 20.424H150.381ZM165.388 13.848V25.224H165.228L159.884 19.128L159.388 18.488L159.468 20.04V25H157.5V13.656H157.676L162.94 19.8L163.5 20.528L163.42 19V13.848H165.388ZM171.086 25.16C170.308 25.16 169.644 24.9947 169.094 24.664C168.545 24.3333 168.126 23.8587 167.838 23.24C167.55 22.616 167.406 21.8693 167.406 21C167.406 20.1307 167.553 19.384 167.846 18.76C168.145 18.136 168.574 17.6613 169.134 17.336C169.7 17.0053 170.372 16.84 171.15 16.84C171.924 16.84 172.58 17.0107 173.118 17.352C173.662 17.688 174.073 18.168 174.35 18.792C174.628 19.416 174.766 20.152 174.766 21C174.766 21.8427 174.622 22.5787 174.334 23.208C174.046 23.832 173.625 24.3147 173.07 24.656C172.521 24.992 171.86 25.16 171.086 25.16ZM171.118 23.56C171.614 23.56 171.99 23.344 172.246 22.912C172.508 22.48 172.638 21.8427 172.638 21C172.638 20.152 172.508 19.512 172.246 19.08C171.99 18.6427 171.614 18.424 171.118 18.424C170.596 18.424 170.201 18.6293 169.934 19.04C169.668 19.4507 169.534 20.104 169.534 21C169.534 21.896 169.668 22.5467 169.934 22.952C170.201 23.3573 170.596 23.56 171.118 23.56ZM179.246 25.24C178.654 25.24 178.19 25.1387 177.854 24.936C177.518 24.7333 177.28 24.4293 177.142 24.024C177.008 23.6133 176.942 23.0747 176.942 22.408V18.712H175.902V17.032H177.022L177.134 15.352L178.878 14.6V17.032H180.846V18.712H178.878V22.36C178.878 22.808 178.939 23.1253 179.062 23.312C179.184 23.4987 179.368 23.592 179.614 23.592C179.832 23.592 180.07 23.536 180.326 23.424C180.587 23.3067 180.803 23.176 180.974 23.032L181.358 24.648C181.123 24.8133 180.784 24.952 180.342 25.064C179.904 25.1813 179.539 25.24 179.246 25.24ZM182.776 13.608H185.016V15.736H182.776V13.608ZM182.856 17.032H184.936V25H182.856V17.032ZM190.461 25.192C189.645 25.192 188.965 25.008 188.421 24.64C187.877 24.2667 187.474 23.768 187.213 23.144C186.957 22.52 186.829 21.8213 186.829 21.048C186.829 20.2907 186.973 19.592 187.261 18.952C187.549 18.312 187.975 17.8 188.541 17.416C189.106 17.032 189.783 16.84 190.573 16.84C191.063 16.84 191.49 16.8933 191.853 17C192.221 17.1013 192.573 17.288 192.909 17.56L192.253 19.256C192.098 19.0267 191.869 18.8453 191.565 18.712C191.266 18.5733 190.973 18.504 190.685 18.504C189.522 18.504 188.941 19.3467 188.941 21.032C188.941 21.912 189.082 22.5547 189.365 22.96C189.653 23.36 190.093 23.56 190.685 23.56C191.042 23.56 191.367 23.4933 191.661 23.36C191.959 23.2267 192.194 23.064 192.365 22.872L192.973 24.296C192.855 24.424 192.677 24.5573 192.437 24.696C192.202 24.8293 191.914 24.944 191.573 25.04C191.231 25.1413 190.861 25.192 190.461 25.192ZM197.775 25.208C196.917 25.208 196.207 25.0267 195.647 24.664C195.087 24.296 194.677 23.8053 194.415 23.192C194.159 22.5787 194.031 21.8853 194.031 21.112C194.031 20.3227 194.175 19.6053 194.463 18.96C194.757 18.3093 195.183 17.7947 195.743 17.416C196.303 17.032 196.97 16.84 197.743 16.84C198.895 16.84 199.719 17.1733 200.215 17.84C200.711 18.5013 200.959 19.4907 200.959 20.808C200.959 21.064 200.949 21.352 200.927 21.672H196.127C196.159 22.3173 196.338 22.816 196.663 23.168C196.994 23.5147 197.477 23.688 198.111 23.688C198.442 23.688 198.797 23.616 199.175 23.472C199.554 23.3227 199.834 23.144 200.015 22.936L200.655 24.456C199.903 24.9573 198.943 25.208 197.775 25.208ZM198.927 20.424C198.927 19.64 198.829 19.1013 198.631 18.808C198.439 18.5093 198.159 18.36 197.791 18.36C197.274 18.36 196.871 18.552 196.583 18.936C196.301 19.32 196.143 19.816 196.111 20.424H198.927Z" fill="black"/>
<defs>
<filter id="filter0_dddd_1576_11604" x="116" y="0" width="118" height="38" filterUnits="userSpaceOnUse" color-interpolation-filters="sRGB">
<feFlood flood-opacity="0" result="BackgroundImageFix"/>
<feColorMatrix in="SourceAlpha" type="matrix" values="0 0 0 0 0 0 0 0 0 0 0 0 0 0 0 0 0 0 127 0" result="hardAlpha"/>
<feOffset dx="1"/>
<feGaussianBlur stdDeviation="0.5"/>
<feColorMatrix type="matrix" values="0 0 0 0 0 0 0 0 0 0 0 0 0 0 0 0 0 0 0.1 0"/>
<feBlend mode="normal" in2="BackgroundImageFix" result="effect1_dropShadow_1576_11604"/>
<feColorMatrix in="SourceAlpha" type="matrix" values="0 0 0 0 0 0 0 0 0 0 0 0 0 0 0 0 0 0 127 0" result="hardAlpha"/>
<feOffset dx="2"/>
<feGaussianBlur stdDeviation="1"/>
<feColorMatrix type="matrix" values="0 0 0 0 0 0 0 0 0 0 0 0 0 0 0 0 0 0 0.09 0"/>
<feBlend mode="normal" in2="effect1_dropShadow_1576_11604" result="effect2_dropShadow_1576_11604"/>
<feColorMatrix in="SourceAlpha" type="matrix" values="0 0 0 0 0 0 0 0 0 0 0 0 0 0 0 0 0 0 127 0" result="hardAlpha"/>
<feOffset dx="5"/>
<feGaussianBlur stdDeviation="1.5"/>
<feColorMatrix type="matrix" values="0 0 0 0 0 0 0 0 0 0 0 0 0 0 0 0 0 0 0.05 0"/>
<feBlend mode="normal" in2="effect2_dropShadow_1576_11604" result="effect3_dropShadow_1576_11604"/>
<feColorMatrix in="SourceAlpha" type="matrix" values="0 0 0 0 0 0 0 0 0 0 0 0 0 0 0 0 0 0 127 0" result="hardAlpha"/>
<feOffset dx="9"/>
<feGaussianBlur stdDeviation="2"/>
<feColorMatrix type="matrix" values="0 0 0 0 0 0 0 0 0 0 0 0 0 0 0 0 0 0 0.01 0"/>
<feBlend mode="normal" in2="effect3_dropShadow_1576_11604" result="effect4_dropShadow_1576_11604"/>
<feBlend mode="normal" in="SourceGraphic" in2="effect4_dropShadow_1576_11604" result="shape"/>
</filter>
</defs>
</svg>
