<svg id="Layer_1" viewBox="0 0 512 512" xmlns="http://www.w3.org/2000/svg" data-name="Layer 1"><g><circle cx="256.001" cy="198.341" fill="#1176e8" r="136" transform="matrix(.707 -.707 .707 .707 -65.267 239.113)"/><g fill-rule="evenodd"><path d="m305.421 325.063c-61.554 24.093-133.139.273-167.199-58.722s-18.897-132.899 32.745-174.16c61.554-24.093 133.139-.273 167.199 58.722s18.897 132.899-32.745 174.16z" fill="#2a92fa"/><path d="m297.843 117.392c19.246-21.257-27.281-33.39-17.014-52.801-17.643-3.284-36.229-3.108-54.844 1.104-32.248 7.297-59.205 25.494-77.865 49.83 9.836 8.794 20.44 14.52 29.839 12.393 10.201-2.308 27.603-6.579 28.458 8.068.832 14.266 18.413 5.475 13.764 32.762-1.756 10.309 17.133 18.845 1.393 33.37-4.003 3.694-45.051 40.281-23.913 41.561 19.887 1.204 8.024-21.479 38.667-9.726 12.894 4.945 20.019-4.148 20.697-15.976.473-8.256-.203-29.248 8.711-30.987 34.803-6.786 2.845-34.699-5.995-45.013-13.023-15.195 7.297-52.534 19.643-25.158 5.023 11.137 10.388 9.488 18.46.573z" fill="#a8e304"/><path d="m297.843 117.392c2.291-2.53 3.64-4.93 4.274-7.229-37.016-27.796-86.722-35.386-131.189-17.966-8.553 6.866-16.201 14.711-22.808 23.327 9.836 8.794 20.44 14.52 29.839 12.393 10.201-2.308 27.603-6.579 28.458 8.068.832 14.266 18.412 5.475 13.764 32.762-1.756 10.309 17.133 18.845 1.393 33.37-4.003 3.694-45.051 40.281-23.913 41.56 19.887 1.204 8.024-21.479 38.667-9.726 12.894 4.945 20.019-4.148 20.697-15.976.473-8.256-.203-29.248 8.711-30.987 34.803-6.786 2.845-34.699-5.995-45.013-13.023-15.195 7.297-52.534 19.643-25.158 5.023 11.137 10.388 9.488 18.46.573z" fill="#dbff78"/><path d="m198.956 321.807c22.683-14.338 27.724-33.086.06-30.759-8.7.732-23.581 2.255-22.597-9.953.958-11.891-17.824-14.704-10.833-36.729 5.207-16.404 13.79-36.688-2.596-47.719-10.09-5.576-17.03 1.12-18.955 10.821-1.343 6.771-3.205 24.205-10.776 24.614-3.614.195-6.435.769-8.599 1.639 3.015 11.166 7.507 22.129 13.563 32.619 14.599 25.286 36.093 44.106 60.734 55.465z" fill="#dbff78"/><path d="m334.085 250.413c-12.977 41.197-12.4 3.137-33.753 15.466-35.37 20.421 12.536 22.483-18.987 41.805-10.099 6.19-8.037 16.915-4.484 25.085 16.157-2.503 32.131-7.983 47.141-16.648 30.717-17.735 51.899-45.643 61.746-77.011-18.439-11.297-41.298-21.603-51.663 11.303z" fill="#a8e304"/><path d="m334.085 250.413c-12.977 41.197-12.4 3.137-33.753 15.466-35.37 20.421 12.536 22.482-18.986 41.805-10.099 6.19-8.038 16.915-4.485 25.085 9.639-1.493 19.213-4.046 28.556-7.703 30.334-24.234 48.082-59.731 50.663-96.854-8.986.437-16.963 6.227-21.995 22.201z" fill="#dbff78"/></g></g><g fill-rule="evenodd"><path d="m475.767 20c-54.287-12.224-94.226 45.64-63.064 94.666 62.229-12.797 41.655-75.612 63.064-94.666z" fill="#8bbd00"/><path d="m475.767 20c-8.548-1.925-16.739-2.109-24.354-.866-29.513 11.194-46.58 45.233-34.296 78.616.884 2.402-.518 9.433-1.686 16.308 58.893-14.056 39.245-75.288 60.336-94.058z" fill="#a8e304"/><path d="m238.63 41.345c31.201-49.336 103.749-36.039 117 23.441-55.652 36.667-86.985-25.189-117-23.441z" fill="#8bbd00"/><path d="m238.63 41.345c4.913-7.768 10.852-13.98 17.422-18.708 30.195-13.588 68.104-.999 83.755 32.875 1.126 2.438 7.381 6.613 13.348 10.846-54.111 33.259-84.958-26.735-114.525-25.014z" fill="#a8e304"/><path d="m364.86 463.571c3.251-16.864 10.252-30.705 25.091-44.176 20.32-18.447 41.656-22.554 58.09-65.84l45.733-122.042c3.359-9.799 6.604-21.558 7.218-27.197-6.758-16.315-27.536-17.447-44.803 22.19-11.397 26.163-27.555 57.133-36.107 70.035-1.068-2.653-2.847-5.138-5.468-7.399-7.532-6.496-17.949-5.639-30.512 6.691-20.003 19.633-39.398 35.879-61.446 53.736-13.486 11.733-24.429 25.395-26.329 53.998-.629 9.48-3.657 43.43-12.462 60.003h80.996z" fill="#fdb0a0"/><path d="m486.236 193.698c-8.936.627-20.077 9.921-30.047 32.808-11.397 26.163-27.555 57.133-36.107 70.035-1.068-2.653-2.847-5.138-5.468-7.399-7.532-6.496-17.949-5.639-30.512 6.691-20.003 19.633-39.398 35.879-61.446 53.736-13.486 11.733-24.429 25.395-26.329 53.998-.629 9.48-3.657 43.43-12.462 60.003h66.686c4.876-23.539 12.501-37.794 26.8-50.776 20.32-18.447 41.656-22.554 58.09-65.84l45.733-122.042c3.359-9.799 6.604-21.558 7.218-27.197-.609-1.469-1.333-2.813-2.156-4.017z" fill="#ffcec0"/><path d="m420.082 296.542c-1.068-2.653-2.847-5.138-5.468-7.399-4.307-3.714-9.558-5.023-15.615-3.158 1.46.238 2.788.898 3.973 1.919 9.194 7.929.405 22.55-11.025 35.803-7.913 9.175-17.347 17.827-24.077 23.998-2.072 1.9-3.884 3.562-5.612 5.218-3.176 3.055-3.274 8.106-.219 11.281 3.055 3.176 8.106 3.273 11.281.219 1.226-1.176 3.156-2.945 5.362-4.968 6.964-6.386 16.727-15.339 25.327-25.311 10.91-12.65 18.2-25.482 16.073-37.602z" fill="#fdb0a0"/><path d="m268.976 501.005v-36.264c0-7.119 5.824-12.943 12.943-12.943h89.045c7.119 0 12.944 5.824 12.944 12.943v36.264z" fill="#2a93fc"/><path d="m268.976 501.005v-36.264c0-7.119 5.824-12.943 12.943-12.943h71.474c7.119 0 12.944 5.824 12.944 12.943v36.264z" fill="#4eb1fc"/><path d="m147.124 463.571c-3.251-16.864-10.252-30.705-25.091-44.176-20.32-18.447-41.656-22.554-58.09-65.84l-45.733-122.042c-3.358-9.799-6.604-21.558-7.218-27.197 6.758-16.315 27.536-17.447 44.803 22.19 11.397 26.163 27.555 57.133 36.107 70.035 1.068-2.653 2.847-5.138 5.468-7.399 7.532-6.496 17.949-5.639 30.512 6.691 20.003 19.633 39.398 35.879 61.446 53.736 13.486 11.733 24.43 25.395 26.329 53.998.629 9.48 3.657 43.43 12.462 60.003h-80.996z" fill="#fdb0a0"/><path d="m25.748 193.698c8.936.627 20.077 9.921 30.047 32.808 11.397 26.163 27.555 57.133 36.107 70.035 1.068-2.653 2.847-5.138 5.468-7.399 7.532-6.496 17.949-5.639 30.512 6.691 20.003 19.633 39.398 35.879 61.446 53.736 13.486 11.733 24.43 25.395 26.329 53.998.629 9.48 3.657 43.43 12.462 60.003h-66.686c-4.876-23.539-12.501-37.794-26.8-50.776-20.32-18.447-41.656-22.554-58.09-65.84l-45.733-122.041c-3.359-9.799-6.604-21.558-7.218-27.197.609-1.469 1.333-2.813 2.156-4.017z" fill="#ffcec0"/><path d="m91.901 296.542c1.068-2.653 2.847-5.138 5.468-7.399 4.307-3.714 9.558-5.023 15.615-3.158-1.46.238-2.788.898-3.973 1.919-9.194 7.929-.405 22.55 11.025 35.803 7.913 9.175 17.347 17.827 24.077 23.998 2.072 1.9 3.884 3.562 5.612 5.218 3.176 3.055 3.273 8.106.219 11.281-3.055 3.176-8.106 3.273-11.281.219-1.227-1.176-3.156-2.945-5.362-4.968-6.964-6.386-16.727-15.339-25.327-25.311-10.91-12.65-18.199-25.482-16.073-37.602z" fill="#fdb0a0"/><path d="m243.008 501.005v-36.264c0-7.119-5.824-12.943-12.943-12.943h-89.045c-7.119 0-12.944 5.824-12.944 12.943v36.264z" fill="#2a93fc"/><path d="m243.008 501.005v-36.264c0-7.119-5.824-12.943-12.943-12.943h-71.474c-7.12 0-12.944 5.824-12.944 12.943v36.264z" fill="#4eb1fc"/><path d="m487.193 229.154-45.689 121.923c-11.39 30.01-25.098 39.799-39.611 50.162-5.418 3.88-11.028 7.89-16.639 12.98-10.319 9.37-17.448 19.189-22.138 30.578h-65.533c4.029-17.54 5.471-36.7 5.741-40.763 1.663-25.006 10.353-37.336 23.84-49.097 23.763-19.251 42.402-35.022 61.851-54.11 8.831-8.661 15.901-10.811 21.04-6.382 2.882 2.492 4.251 5.239 4.3 8.662.251 16.248-26.511 40.787-39.38 52.591-2.179 1.995-4.059 3.716-5.586 5.186-2.8 2.68-2.892 7.11-.222 9.9 2.68 2.791 7.11 2.892 9.9.212 1.417-1.359 3.249-3.041 5.379-4.989 21.411-19.632 44.229-42.32 43.91-63.114-.029-1.807-.241-3.576-.631-5.278 9.418-15.019 24.539-44.551 34.892-68.314 9.211-21.146 19.001-28.641 24.611-28.641h.048c3.22.034 5.297 2.535 6.497 4.743-.916 5.331-3.567 14.952-6.579 23.748zm-110.278 264.851h-100.932v-29.257c0-3.282 2.67-5.953 5.943-5.953h89.045c3.283 0 5.943 2.67 5.943 5.953v29.257zm-228.031-49.208c-4.69-11.39-11.809-21.208-22.139-30.578-5.601-5.09-11.211-9.1-16.644-12.98-14.508-10.363-28.207-20.153-39.597-50.143l-45.692-121.942c-3.008-8.797-5.669-18.418-6.589-23.748 1.21-2.208 3.283-4.709 6.502-4.743h.058c5.611 0 15.39 7.495 24.601 28.641 10.349 23.763 25.469 53.295 34.892 68.314-.391 1.701-.603 3.47-.632 5.278-.313 20.794 22.51 43.482 43.92 63.114 2.121 1.947 3.948 3.629 5.369 4.989 2.791 2.68 7.23 2.579 9.901-.212 2.68-2.791 2.579-7.22-.212-9.9-1.528-1.47-3.417-3.191-5.596-5.186-12.86-11.804-39.63-36.343-39.38-52.591.048-3.422 1.417-6.17 4.309-8.662 5.129-4.429 12.209-2.28 21.03 6.382 19.449 19.087 38.088 34.858 61.851 54.11 13.486 11.761 22.186 24.09 23.85 49.097.27 4.102 1.697 23.232 5.726 40.763h-65.528zm87.132 19.95v29.257h-100.932v-29.257c0-3.282 2.67-5.953 5.953-5.953h89.036c3.282 0 5.943 2.67 5.943 5.953zm182.588-417.28c9.958-14.161 25.662-22.037 42.802-22.037.66 0 1.316.01 1.976.034-3.475 7.408-5.196 16.349-6.97 25.623-4.15 21.724-8.44 44.108-34.887 53.811 3.697-16.803 10.961-32.766 21.449-46.73 2.318-3.09 1.701-7.481-1.388-9.799-3.104-2.323-7.481-1.702-9.814 1.388-9.587 12.773-16.759 27.04-21.295 42.103-3.764-15.443-1.051-31.345 8.127-44.392zm-142.842 2.906c-8.387-5.692-16.47-11.178-24.727-14.036 12.971-14.185 31.489-20.799 50.461-17.497 17.087 2.974 31.306 13.284 40.021 28.255-13.834-7.775-28.833-13.694-44.745-17.545-3.76-.901-7.538 1.402-8.45 5.162-.911 3.755 1.403 7.539 5.163 8.449 17.819 4.304 34.4 11.448 49.299 21.059-27.402 13.033-47.511-.603-67.023-13.848zm92.101 83.372c-12.619-21.859-31.128-39.356-53.551-50.668-9.568-1.109-18.306-4.444-26.26-8.599 1.499 2.285 4.063 5.085 7.794 8.855 4.748 4.781 9.645 9.727 12.146 15.723 2.27 5.471 3.273 13.887-4.912 22.924-4.777 5.273-10.609 10.522-17.685 9.404-7.582-1.195-11.183-9.173-12.364-11.799-1.851-4.082-3.47-5.437-3.981-5.635-.737.188-3.196 2.155-5.008 7.047-1.962 5.268-2.4 12.364 1.012 16.345.998 1.162 2.376 2.632 3.976 4.338 9.192 9.818 23.093 24.654 18.813 37.905-2.323 7.163-9.201 11.939-20.451 14.19-1.759 1.793-2.839 8.705-3.22 20.557-.048 1.533-.092 2.911-.159 4.059-.545 9.351-4.372 16.991-10.513 20.962-3.87 2.497-10.43 4.728-19.709 1.166-8.469-3.248-12.05-3.114-13.419-2.742-1.041.279-1.648.945-3.359 3.263-2.709 3.687-7.172 9.727-17.984 9.727-.598 0-1.229-.019-1.87-.058-8.209-.497-11.009-5.032-11.949-7.688-2.28-6.439-.39-16.87 30.911-45.448l.66-.602c5.89-5.437 4.642-7.548.93-13.814-2.468-4.164-5.548-9.355-4.483-15.631 2.024-11.838-.429-13.457-4.14-15.906-3.658-2.415-9.187-6.068-9.727-15.313-.082-1.499-.419-2.477-.998-2.916-3.114-2.333-13.371-.01-18.292 1.109l-.67.149c-9.139 2.073-19.242-1.007-30.092-9.115-19.699 28.973-27.016 65.182-19.618 99.852.747-.087 1.509-.164 2.309-.217 2.149-2.516 3.851-12.363 4.42-15.694.222-1.272.42-2.42.608-3.369 1.595-8.035 5.88-14.209 11.751-16.938 3.731-1.735 9.789-2.906 17.482 1.34.178.101.352.207.521.318 19.367 13.043 12.089 35.201 6.767 51.382-.477 1.465-.959 2.906-1.407 4.323-3.07 9.698 0 13.429 4.256 18.586 3.34 4.053 7.505 9.095 6.902 16.629-.082.983.048 1.513.15 1.61 1.933 1.923 10.951 1.152 14.34.863l.573-.039c17.839-1.504 23.869 4.96 25.778 10.657 2.521 7.529-1.658 16.663-11.12 25.218 13.829 4.873 28.448 7.413 43.192 7.413 3.808 0 7.606-.183 11.419-.511-3.042-15 5.659-22.399 10.079-25.122 7.442-4.56 8.04-6.897 8.049-6.917-.048-.564-1.21-2.313-1.899-3.364-2.131-3.215-5.35-8.078-3.861-14.397 1.422-6.02 6.623-11.346 16.88-17.27 12.831-7.404 21.309-1.369 25.58 1.937 1.06-2.082 2.699-6.02 5.042-13.462 4.242-13.467 11.047-22.037 20.23-25.474 10.97-4.107 22.861-.14 33.837 5.697 7.823-32.357 2.993-65.904-13.708-94.839zm-47.28 176.442c26.669-15.4 46.562-39.249 56.872-67.895-8.512-4.806-18.022-8.835-24.814-6.295-4.94 1.851-8.907 7.423-11.79 16.571-5.206 16.538-8.719 22.418-14.479 24.216-5.316 1.663-9.399-1.499-12.089-3.591-3.528-2.743-5.311-4.121-10.402-1.181-9.64 5.562-10.247 8.343-10.257 8.372.019.583 1.21 2.371 1.918 3.442 2.092 3.166 5.249 7.948 3.89 14.127-1.248 5.601-5.688 10.469-14.397 15.824-1.75 1.07-5.471 3.35-3.528 11.178 13.395-2.689 26.597-7.563 39.076-14.768zm-176.442-47.275c13.154 22.784 32.261 40.035 54.225 50.943 9.838-6.97 12.648-12.898 12.508-14.499-.66-.588-3.832-1.861-11.342-1.229l-.559.048c-7.52.631-18.88 1.6-25.387-4.897-2.222-2.212-4.762-6.203-4.242-12.652.14-1.711-.974-3.249-3.74-6.599-4.849-5.885-12.18-14.773-6.801-31.735.463-1.46.95-2.95 1.451-4.454 5.562-16.933 8.498-28.568-1.031-35.22-1.379-.728-3.2-1.379-4.54-.757-1.697.791-3.239 3.523-3.919 6.97-.169.848-.337 1.875-.54 3.022-1.832 10.59-4.589 26.592-16.74 27.248-.019 0-.039.005-.058.005 2.709 8.131 6.266 16.104 10.715 23.806zm47.27-176.442c-13.067 7.548-24.317 17.063-33.596 27.942 7.216 5.355 13.67 7.678 18.499 6.584l.66-.154c8.56-1.942 21.497-4.878 29.798 1.359 2.771 2.077 6.15 6.073 6.57 13.289.13 2.159.511 2.492 3.47 4.449 6.975 4.603 13.501 10.71 10.223 29.937-.202 1.205 1.417 3.948 2.719 6.145 3.75 6.334 10.729 18.119-3.48 31.234l-.708.656c-18.181 16.605-24.124 25.127-26.062 28.862 3.302-.048 4.159-1.219 6.242-4.039 6.541-8.874 14.036-12.585 33.066-5.288 3.041 1.171 5.432 1.219 7.095.145 2.28-1.475 3.856-5.307 4.126-10.001.063-1.046.101-2.304.149-3.707.4-12.431 1.003-31.21 14.219-33.788 6.743-1.311 9.64-3.35 10.122-4.82 1.74-5.394-10.937-18.928-15.708-24.023-1.711-1.827-3.191-3.403-4.382-4.796-7.939-9.255-6.926-23.242-2.41-32.993 3.919-8.474 10.291-13.525 17.053-13.525h.068c4.752.024 11.491 2.453 16.648 13.891.81 1.808 1.47 2.83 1.899 3.374.824-.506 2.396-1.725 5.013-4.618 5.051-5.577 4.03-8.474-6.801-19.396-5.929-5.986-13.539-13.665-13.578-22.996-27.942-3.581-56.25 2.039-80.914 16.277zm316.055 115.165c-3.851-9.293-11.351-14.894-20.061-14.971-7.992-.082-23.512 4.642-37.621 37.047-9.751 22.37-21.912 46.027-30.279 60.414-.101-.101-.202-.188-.308-.279-1.933-1.673-5.114-3.861-9.361-4.97 22.905-43.766 26.019-94.796 9.1-140.6-.371-6.025-.294-12.04.227-17.993 40.281-10.643 46.46-42.816 51.001-66.565 2.29-11.987 4.463-23.31 10.228-28.443 1.961-1.745 2.781-4.439 2.121-6.979-.651-2.545-2.671-4.502-5.24-5.081-27.518-6.198-54.389 3.837-70.122 26.192-12.099 17.208-15.309 38.228-9.64 58.298-10.045-14.205-21.999-26.64-35.495-37.042-7.553-29.455-29.6-50.654-58.11-55.619-28.221-4.907-55.561 7.563-71.36 32.55-1.403 2.222-1.451 5.037-.12 7.297 1.34 2.261 3.832 3.581 6.439 3.432 5.577-.328 11.809 2.574 18.711 6.825-25.474-.299-50.683 6.218-73.159 19.193-68.362 39.471-91.874 127.206-52.403 195.568 26.491 45.872 74.711 71.553 124.231 71.553 24.269 0 48.851-6.17 71.337-19.15 33.123-19.116 56.814-49.993 66.705-86.929 9.895-36.941 4.82-75.52-14.301-108.639-10.561-18.302-24.852-33.841-41.925-45.761 5.572-1.624 11.365-4.121 17.395-7.669 15.429 12.286 28.578 27.513 38.787 45.197 29.2 50.562 28.482 112.649-1.721 162.551-4.078 1.971-8.527 5.08-13.318 9.77-19.073 18.721-37.461 34.27-60.94 53.29-.072.063-.13.111-.193.159-.786.694-1.566 1.393-2.347 2.102-38.059 15.4-81.439 15.4-119.44 0-.781-.709-1.562-1.407-2.347-2.102-.063-.048-.13-.096-.193-.159-23.488-19.02-41.872-34.569-60.949-53.29-4.772-4.68-9.211-7.779-13.289-9.761-4.921-8.112-9.144-16.687-12.542-25.522-1.388-3.605-5.442-5.408-9.043-4.015-3.605 1.388-5.408 5.437-4.02 9.047 2.4 6.232 5.172 12.344 8.281 18.282-4.261 1.109-7.438 3.307-9.38 4.979-.096.092-.198.178-.308.279-8.368-14.388-20.529-38.045-30.27-60.414-14.123-32.405-29.6-37.09-37.63-37.047-8.71.077-16.21 5.678-20.061 14.971-.448 1.089-.622 2.27-.492 3.437.733 6.748 4.323 19.285 7.553 28.713.019.058.048.125.068.188l45.742 122.062c12.899 33.981 29.002 45.482 44.561 56.602 5.336 3.808 10.378 7.408 15.366 11.939 7.452 6.758 12.903 13.732 16.764 21.488-7.582 2.83-13.014 10.122-13.014 18.683v36.261c0 3.87 3.143 6.999 7.004 6.999h114.929c3.87 0 6.998-3.128 6.998-6.999v-36.261c0-10.999-8.936-19.95-19.94-19.95h-1.258c-4.362-17.15-5.89-37.543-6.16-41.693-1.041-15.689-4.772-27.368-9.929-36.608 14.137 3.62 28.689 5.442 43.26 5.442s29.137-1.831 43.298-5.451c-5.162 9.24-8.888 20.928-9.929 36.618-.28 4.112-1.798 24.524-6.16 41.693h-1.268c-10.99 0-19.941 8.951-19.941 19.95v36.261c0 3.87 3.128 6.999 6.999 6.999h114.929c3.87 0 6.999-3.128 6.999-6.999v-36.261c0-8.56-5.418-15.853-13.009-18.683 3.861-7.755 9.322-14.73 16.759-21.488 5.003-4.531 10.04-8.131 15.371-11.939 15.569-11.12 31.658-22.62 44.571-56.621l45.733-122.043c.029-.063.048-.13.067-.188 3.229-9.428 6.82-21.965 7.558-28.713.121-1.166-.048-2.347-.497-3.437z"/></g></svg>