<svg clip-rule="evenodd" fill-rule="evenodd" height="256" image-rendering="optimizeQuality" shape-rendering="geometricPrecision" text-rendering="geometricPrecision" viewBox="0 0 38957 40135" width="248" xmlns="http://www.w3.org/2000/svg"><g id="Layer_x0020_1"><g id="_404509232"><path d="m5205 36654h2013c2302 0 2302-3481 0-3481h-5453c-2302 0-2302-3480 0-3480h5342c2303 0 2303-3481 0-3481h-1918c-2303 0-2303-3481 0-3481h9556 3400 5182c2302 0 2302 3481 0 3481h-959c-2303 0-2303 3481 0 3481h2615c2303 0 2303 3480 0 3480h-2726c-2303 0-2303 3481 0 3481h838c2302 0 2302 3481 0 3481h-4950-3400-9540c-2302 0-2302-3481 0-3481z" fill="#e6e6e6"/><path d="m15620 22731h17924c2302 0 2302 3481 0 3481h-1788c-2432 0-2647 3481 267 3481h5026c2302 0 2302 3481 0 3481h-7241c-2302 0-2302 3480 0 3480h1752c2303 0 2303 3481 0 3481h-15940-961c-2302 0-2302-3481 0-3481h961c2317 0 2414-3481 0-3481h-4100c-2302 0-2302-3480 0-3480h2971c2549 78 2851-3481 0-3481h-1815c-2302 0-2302-3481 0-3481zm20168 13923h-10c-957 0-1741 783-1741 1741 0 957 784 1740 1741 1740h10c957 0 1740-783 1740-1740 0-958-783-1741-1740-1741z" fill="#c2c2c2"/></g><g id="_404540696"><path d="m20015 11530c6719 0 12535 4055 15347 9958-2812 5903-8628 9957-15347 9957s-12535-4054-15347-9957c2812-5903 8628-9958 15347-9958z" fill="#e1e1e1"/><path d="m5822 21488c2740 5350 8097 8922 14193 8922s11453-3572 14193-8922c-2740-5351-8097-8923-14193-8923s-11453 3572-14193 8923z" fill="#fff"/></g><path d="m27693 29545c-2310 1215-4918 1900-7678 1900-6719 0-12535-4054-15347-9957 2812-5903 8628-9958 15347-9958s12535 4055 15347 9958c-267 560-561 1104-880 1629" fill="none" stroke="#105286" stroke-width="627.221"/><path d="m20015 14537c3839 0 6951 3112 6951 6951 0 3838-3112 6950-6951 6950s-6951-3112-6951-6950c0-3839 3112-6951 6951-6951z" fill="none" stroke="#105286" stroke-width="627.221"/><path d="m20015 15510c3302 0 5978 2676 5978 5978 0 3301-2676 5977-5978 5977-3301 0-5978-2676-5978-5977 0-3302 2677-5978 5978-5978z" fill="#53b4ed"/><path d="m20015 18508c1645 0 2979 1334 2979 2980 0 1645-1334 2979-2979 2979s-2979-1334-2979-2979c0-1646 1334-2980 2979-2980z" fill="none" stroke="#105286" stroke-width="627.221"/><path d="m20015 19714c979 0 1773 794 1773 1774 0 979-794 1773-1773 1773s-1773-794-1773-1773c0-980 794-1774 1773-1774z" fill="#475563"/><path d="m17590 16902c411 0 745 333 745 745 0 411-334 744-745 744s-745-333-745-744c0-412 334-745 745-745z" fill="#fff"/><g id="_404534144"><path d="m6814 12388v-11925c2291 2488 5057 2362 5057 2362 789 7031-2851 8811-5057 9563z" fill="#ff576b"/><g fill="none" stroke="#105286" stroke-width="627.221"><path d="m6814 12388c-2207-752-5846-2532-5057-9563 0 0 2766 126 5057-2362 2291 2488 5057 2362 5057 2362 789 7031-2851 8811-5057 9563z"/><path d="m6814 2374c1556 1691 3436 1605 3436 1605 536 4778-1937 5987-3436 6498"/></g></g><path d="m3355 13423c415 0 752 336 752 752 0 415-337 752-752 752s-752-337-752-752c0-416 337-752 752-752z" fill="none" stroke="#105286" stroke-width="627.221"/><path d="m36794 15148c415 0 752 336 752 752 0 415-337 752-752 752s-752-337-752-752c0-416 337-752 752-752z" fill="none" stroke="#105286" stroke-width="627.221"/><path d="m14295 7405 373 373m1016-373-373 373m-643 643-373 373m1016-373 373 373" fill="none" stroke="#105286" stroke-width="627.221"/><g id="_404520392"><g><g><path d="m37421 30860v5555c0 1147-938 2086-2086 2086h-5528c-1148 0-2086-939-2086-2086v-5555-1382h9700z" fill="#fff"/><path d="m36769 30130h-8396v6285c0 787 646 1434 1434 1434h5528c788 0 1434-647 1434-1434z" fill="#ffd027"/></g><g fill="none" stroke="#105286" stroke-width="627.221"><path d="m37421 30860v5555c0 1147-938 2086-2086 2086h-5528c-1148 0-2086-939-2086-2086v-5555-1382h9700z"/><path d="m37421 31421h-8019"/><path d="m32571 33494c535 0 968 433 968 968 0 534-433 967-968 967s-968-433-968-967c0-535 433-968 968-968z"/><path d="m32571 36942v-1462"/></g></g><g fill="none" stroke="#105286" stroke-width="627.221"><path d="m29135 29478v-3507c0-4546 6872-4546 6872 0v3507"/><path d="m30627 29478v-3486c0-2572 3888-2572 3888 0v3486"/><path d="m37346 24744 373 373m1016-373-373 373m-643 644-373 372m1016-372 373 372"/></g></g><path d="m222 16680 373 373m1016-373-373 373m-643 643-373 373m1016-373 373 373" fill="none" stroke="#105286" stroke-width="627.221"/><path d="m36748 1084 373 373m1016-373-373 373m-643 643-373 373m1016-373 373 373" fill="none" stroke="#105286" stroke-width="627.221"/><path d="m29594 3777c-1227 1371-1110 3477 261 4704s3477 1110 4704-261c1227-1372 1110-3478-261-4705s-3477-1110-4704 262z" fill="none" stroke="#105286" stroke-width="627.221"/><path d="m34556 8216 4037 3613" fill="none" stroke="#105286" stroke-width="627.221"/><path d="m30613 4688c-723 809-654 2050 154 2773 808 724 2050 655 2773-153 723-809 654-2050-154-2773-808-724-2050-655-2773 153z" fill="#00dcab"/><g fill="none" stroke="#105286" stroke-width="627.221"><path d="m22017 1357c340 0 615 275 615 615 0 339-275 615-615 615-339 0-614-276-614-615 0-340 275-615 614-615z"/><path d="m16428 3937 312 534m663 1155 2235 3871"/><path d="m25981 5084-328 535m-488 795-1892 3083"/><path d="m21386 5298v4083"/><path d="m3767 27217 373 373m1016-373-373 373m-643 644-373 372m1016-372 373 372"/></g></g></svg>