<svg id="Layer_1" enable-background="new 0 0 512 512" height="512" viewBox="0 0 512 512" width="512" xmlns="http://www.w3.org/2000/svg"><g><g><path clip-rule="evenodd" d="m173.157 125.772-131.783 49.722v138.278l150.86-24.606z" fill="#95d6a4" fill-rule="evenodd"/></g><g><path clip-rule="evenodd" d="m242.748 281.909-69.591-156.137v156.846z" fill="#78c2a4" fill-rule="evenodd"/></g><g><path clip-rule="evenodd" d="m173.157 312.383-131.783 47.226v65.653l131.783-49.721 4.989-31.806z" fill="#95d6a4" fill-rule="evenodd"/></g><g><path clip-rule="evenodd" d="m173.157 282.618-131.783 31.154v45.837l131.783-33.733 10.885-24.322z" fill="#ffd772" fill-rule="evenodd"/></g><g><path clip-rule="evenodd" d="m41.374 313.772v-138.278l131.783-49.722 12.841-9.638-12.841-24.804-165.657 62.478v318.68l165.657-62.477 9.525-13.805-9.525-20.665-131.783 49.721v-65.653z" fill="#f9f6f6" fill-rule="evenodd"/></g><g><path clip-rule="evenodd" d="m338.814 188.278-112.053-42.266 27.524 126.911 84.529-31.465 11.708-28.149z" fill="#78c2a4" fill-rule="evenodd"/></g><g><path clip-rule="evenodd" d="m245.894 297.982-72.737 27.894v49.665l90.879 34.3z" fill="#78c2a4" fill-rule="evenodd"/></g><g><path clip-rule="evenodd" d="m470.598 250.529-60.804 6.435-70.98 27.015-15.08 63.838 15.08 90.229 145.276-36.993z" fill="#90d8f9" fill-rule="evenodd"/></g><g><path clip-rule="evenodd" d="m484.09 125.829-145.276 62.449v53.18l70.47-7.229 61.314-26.533z" fill="#95d6a4" fill-rule="evenodd"/></g><g><path clip-rule="evenodd" d="m504.5 91.33-165.686 62.478-7.143 13.266 7.143 21.204 131.784-49.721v69.139 42.833 137.796l-131.784 49.721-12.16 16.073 12.16 18.369 165.686-62.477z" fill="#f9f6f6" fill-rule="evenodd"/></g><g><path clip-rule="evenodd" d="m338.814 283.979-76.649 5.187 57.147 141.51 19.502 7.37z" fill="#75cef8" fill-rule="evenodd"/></g><g><path clip-rule="evenodd" d="m470.598 207.696-131.784 33.762-10.941 24.01 10.941 18.511 131.784-33.45z" fill="#ffd772" fill-rule="evenodd"/></g><g><path clip-rule="evenodd" d="m261.655 261.244-34.894-115.232-23.755-17.008-29.849-3.232 45.525 146.074-45.525 10.772v43.258l59.273-15.166 31.606 99.131 22.252 16.98 33.024 3.855-39.685-131.673 59.187-15.024v-42.521z" fill="#fdb440" fill-rule="evenodd"/></g><g><path clip-rule="evenodd" d="m338.814 153.808-165.657-62.478v34.442l53.604 20.24 112.053 42.266z" fill="#ecdaec" fill-rule="evenodd"/></g><g><path clip-rule="evenodd" d="m264.036 409.841-90.879-34.3v34.47l165.657 62.477v-34.442l-19.502-7.37z" fill="#ecdaec" fill-rule="evenodd"/></g><g><path clip-rule="evenodd" d="m109.576 227.057-16.101-18.624c-14.457-19.276-30.671-37.929-38.778-60.947-19.361-54.767 9.581-107.974 67.408-107.974s86.769 53.208 67.408 107.975c-8.135 23.018-24.321 41.671-38.778 60.947l-16.101 18.624c-7.625 8.844-17.433 8.844-25.058-.001z" fill="#dd636e" fill-rule="evenodd"/></g><g><path clip-rule="evenodd" d="m160.345 113.923c0-21.119-17.121-38.241-38.239-38.241s-38.239 17.122-38.239 38.241c0 21.147 17.121 38.269 38.239 38.269s38.239-17.122 38.239-38.269z" fill="#f9f6f6" fill-rule="evenodd"/></g><g><path clip-rule="evenodd" d="m160.345 113.923c0-21.119-17.121-38.241-38.239-38.241-1.304 0-2.58.057-3.855.198 12.643 18.397 21.798 42.408 25.739 69.423 9.892-6.916 16.355-18.397 16.355-31.38z" fill="#ecdaec" fill-rule="evenodd"/></g><g><path clip-rule="evenodd" d="m189.513 147.486c19.361-54.767-9.581-107.975-67.408-107.975-12.898 0-24.35 2.636-34.158 7.342 11.395 6.492 21.657 16.441 30.302 29.028 1.276-.142 2.551-.198 3.855-.198 21.118 0 38.239 17.122 38.239 38.241 0 12.983-6.463 24.464-16.356 31.38.652 4.451 1.162 8.986 1.531 13.607.425 5.443.652 10.97.652 16.583 0 15.222-1.616 29.85-4.592 43.541l9.156-10.602c11.991-15.988 25.172-31.551 33.988-49.523 1.786-3.685 3.402-7.483 4.791-11.424z" fill="#da4a54" fill-rule="evenodd"/></g><g><path d="m508.767 85.162c-2.025-1.401-4.608-1.718-6.913-.85l-163.038 61.479-41.743-15.754c-3.874-1.461-8.203.494-9.665 4.368-1.463 3.876.493 8.203 4.368 9.665l44.391 16.753c1.707.645 3.59.645 5.295.001l155.538-58.65v302.649l-158.185 59.649-62.721-23.664c-3.873-1.456-8.202.494-9.665 4.37-1.462 3.875.495 8.202 4.37 9.665l65.367 24.662c.854.321 1.75.482 2.647.482.896 0 1.794-.161 2.646-.482l165.686-62.478c2.92-1.102 4.854-3.896 4.854-7.018v-318.679c.001-2.462-1.208-4.767-3.232-6.168z"/><path d="m243.24 428.421-67.437-25.428c-1.707-.643-3.588-.643-5.293 0l-155.51 58.651v-302.65l31.635-11.934c.315.974.644 1.946.988 2.918 1.588 4.51 3.474 8.84 5.563 13.04l-14.461 5.459c-2.919 1.103-4.851 3.896-4.851 7.017v249.769c0 2.463 1.209 4.769 3.234 6.169 2.024 1.399 4.608 1.718 6.913.849l129.136-48.723 88.535 33.407c.012.004.023.009.036.013l74.439 28.088c.854.321 1.75.482 2.647.482s1.795-.161 2.647-.482l131.783-49.722c2.92-1.103 4.853-3.896 4.853-7.018v-249.769c0-2.463-1.209-4.769-3.234-6.169-2.025-1.399-4.608-1.716-6.913-.849l-129.136 48.723-136.948-51.677c.872-6.083 1.205-12.123 1.005-18.042l56.733 21.397c.871.329 1.766.484 2.646.484 3.031 0 5.886-1.852 7.019-4.855 1.462-3.876-.495-8.202-4.371-9.664l-64.101-24.176c-2.355-10.778-6.642-20.819-12.814-29.547-14.669-20.745-38.064-32.17-65.876-32.17-27.813 0-51.208 11.425-65.877 32.17-13.172 18.626-17.779 43.221-13.273 68.234l-38.104 14.374c-2.92 1.102-4.853 3.897-4.853 7.018v318.681c0 2.462 1.209 4.768 3.233 6.169 1.271.879 2.763 1.331 4.268 1.331.892 0 1.788-.159 2.646-.482l163.011-61.479 64.79 24.43c3.877 1.464 8.202-.495 9.664-4.371s-.497-8.205-4.372-9.666zm-182.585-252.19c6.04 9.585 12.924 18.554 19.692 27.356 2.356 3.064 4.793 6.233 7.128 9.347.104.139.213.273.326.405l16.095 18.616c6.582 7.633 13.535 9.235 18.209 9.235 4.675 0 11.628-1.603 18.203-9.228l16.102-18.624c.113-.132.223-.267.326-.405 2.319-3.094 4.74-6.242 7.08-9.287 6.155-8.008 12.408-16.153 18.038-24.775l27.274 87.526-160.254 37.894v-123.612zm109.855 192.292-121.636 45.893v-48.985l178.56-45.701 24.745 77.611-76.374-28.818c-1.707-.642-3.59-.642-5.295 0zm168.304 61.508-13.387-5.051-36.357-120.636 174.027-44.173v122.968zm2.648-234.735 121.636-45.894v52.473l-196.346 50.32-28.41-93.815 97.825 36.915c1.705.644 3.59.643 5.295.001zm-120.814-43.593 33.83 111.714c.978 3.228 3.943 5.328 7.174 5.328.616 0 1.242-.077 1.866-.236l199.58-51.148v27.334l-185.315 47.038c-1.984.504-3.676 1.796-4.684 3.577s-1.243 3.897-.652 5.856l35.306 117.144-37.676-14.216-30.501-95.663c-1.207-3.784-5.157-5.975-9.005-4.987l-181.697 46.504v-30.243l171.533-40.56c2.024-.479 3.759-1.776 4.789-3.584 1.031-1.807 1.265-3.96.646-5.946l-33.84-108.594c1.7-3.57 3.241-7.241 4.582-11.034.772-2.185 1.466-4.377 2.096-6.573zm-152.172-78.861c11.778-16.656 30.824-25.83 53.63-25.83 22.805 0 41.851 9.173 53.629 25.83 13.447 19.017 15.955 45.986 6.707 72.146-6.417 18.157-18.124 33.391-30.52 49.519-2.314 3.012-4.706 6.124-7.03 9.219l-15.938 18.436c-1.585 1.839-4.06 4.03-6.849 4.03-2.788 0-5.263-2.191-6.848-4.03-.003-.003-.005-.005-.007-.008l-15.933-18.428c-2.339-3.116-4.748-6.249-7.079-9.281-12.385-16.106-24.083-31.32-30.47-49.457-9.247-26.159-6.74-53.13 6.708-72.146z"/><path d="m122.105 159.692c25.221 0 45.739-20.532 45.739-45.77 0-25.222-20.519-45.74-45.739-45.74-25.222 0-45.74 20.519-45.74 45.74 0 25.238 20.519 45.77 45.74 45.77zm0-76.509c16.949 0 30.739 13.79 30.739 30.74 0 16.967-13.79 30.77-30.739 30.77-16.95 0-30.74-13.803-30.74-30.77 0-16.95 13.79-30.74 30.74-30.74z"/></g></g></svg>