<svg enable-background="new 0 0 256 256" viewBox="0 0 256 256" xmlns="http://www.w3.org/2000/svg"><g id="Layer_1"/><g id="Layer_2"/><g id="Layer_3"/><g id="Layer_4"/><g id="Layer_5"/><g id="Layer_6"/><g id="Layer_7"/><g id="Layer_8"/><g id="Layer_9"/><g id="Layer_10"/><g id="Layer_11"/><g id="Layer_12"><g><g><path d="m132.962 161.251 1.656 1.236 17.402-23.311v-133.423c0-1.797-1.457-3.253-3.253-3.253h-143.014c-1.796 0-3.253 1.457-3.253 3.253v190.042l25.905 25.905h73.894c1.746-3.554 5.193-6.13 9.267-6.645v-2.99c0-6.139 4.976-11.115 11.115-11.115h29.338v-7.273l-27.783-20.739c-3.214-2.399-3.881-6.992-1.482-10.207s6.994-3.88 10.208-1.48z" fill="#dae6f1"/></g><g><path d="m168.827 197.124c-2.399 3.214-6.992 3.881-10.207 1.482l-34.383-25.667c-3.214-2.399-3.881-6.992-1.482-10.207 2.399-3.214 6.992-3.881 10.207-1.482l34.383 25.667c3.215 2.4 3.882 6.993 1.482 10.207z" fill="#a57453"/></g><g><path d="m211.633 139.78c-2.399 3.214-6.992 3.881-10.207 1.482l-34.383-25.667c-3.214-2.399-3.881-6.992-1.482-10.207 2.399-3.214 6.992-3.881 10.207-1.482l34.383 25.667c3.215 2.4 3.882 6.993 1.482 10.207z" fill="#a57453"/></g><g><g><path d="m138.708 131.869h56.973v38.774h-56.973z" fill="#754e34" transform="matrix(.598 -.801 .801 .598 -54.03 194.757)"/></g></g><g><path d="m178.368 168.698 63.484 47.39c3.214 2.399 7.807 1.733 10.207-1.482 2.399-3.214 1.733-7.807-1.482-10.207l-63.484-47.39z" fill="#a57453"/></g><g><path d="m200.813 246.207c0 4.011-3.282 7.293-7.293 7.293h-94.907c-4.011 0-7.293-3.282-7.293-7.293 0-4.011 3.282-7.293 7.293-7.293h94.907c4.011 0 7.293 3.282 7.293 7.293z" fill="#c18e6b"/></g><g><g><path d="m191.067 238.914v-11.963c0-6.6-5.4-12-12-12h-66c-6.6 0-12 5.4-12 12v11.963z" fill="#a57453"/></g></g><g><g><path d="m113.067 214.952h66c.509 0 1.007.043 1.5.105v-2.99c0-6.139-4.977-11.115-11.115-11.115h-46.77c-6.139 0-11.115 4.976-11.115 11.115v2.99c.492-.063.991-.105 1.5-.105z" fill="#754e34"/></g></g><g><path d="m214.715 195.83 27.137 20.258c3.214 2.399 7.807 1.733 10.207-1.482 2.399-3.214 1.733-7.807-1.482-10.207l-27.137-20.258z" fill="#f5c84c"/></g><g><path d="m151.155 131.869h32.079v38.774h-32.079z" fill="#f5c84c" transform="matrix(.598 -.801 .801 .598 -54.03 194.757)"/></g><g><path d="m42.505 25.856h69.51c2.076 0 3.758 1.682 3.758 3.758v11.041c0 2.076-1.682 3.758-3.758 3.758h-69.51c-2.076 0-3.758-1.682-3.758-3.758v-11.041c0-2.076 1.682-3.758 3.758-3.758z" fill="#fc657e"/></g><g><path d="m2.5 195.796h22.652c1.797 0 3.253 1.457 3.253 3.253v22.652z" fill="#edf4fc"/></g><g><path d="m229.013 106.2c-3.1-.6-5.6-3-6.2-6.1 0-.1-.3-.1-.3 0-.6 3.1-3.1 5.5-6.2 6.1-.1 0-.1.2 0 .3 3.1.6 5.6 3 6.2 6.1 0 .1.3.1.3 0 .6-3.1 3.1-5.5 6.2-6.1.1-.1.1-.3 0-.3z" fill="#fc657e"/></g><g><path d="m190.013 37.5h2.3v2.3c0 1.8 1.4 3.2 3.2 3.2 1.7 0 3.2-1.4 3.2-3.1v-.1-2.3h2.3c1.8 0 3.2-1.4 3.2-3.2 0-1.7-1.4-3.2-3.1-3.2h-.1-2.3v-2.3c0-1.8-1.4-3.2-3.2-3.2-1.7 0-3.2 1.4-3.2 3.1v.1 2.3h-2.3c-1.8 0-3.2 1.4-3.2 3.2-.1 1.7 1.3 3.2 3.2 3.2-.1 0-.1 0 0 0z" fill="#f5c84c"/></g><g><circle cx="15.413" cy="235.9" fill="#70d6f9" r="3.4"/></g><g><circle cx="178.413" cy="3.4" fill="#87d147" r="3.4"/></g><g><path d="m38.813 246.75c4.5-.8 8-4.3 8.9-8.7 0-.2.4-.2.4 0 .9 4.4 4.4 7.9 8.9 8.7.2 0 .2.3 0 .4-4.5.8-8 4.3-8.9 8.7 0 .2-.4.2-.4 0-.9-4.4-4.4-7.9-8.9-8.7-.2-.1-.2-.4 0-.4z" fill="#fc657e"/></g><g><path d="m152.02 202.542c-1.381 0-2.5-1.119-2.5-2.5v-6.042c0-1.381 1.119-2.5 2.5-2.5s2.5 1.119 2.5 2.5v6.042c0 1.381-1.12 2.5-2.5 2.5z"/></g><g><path d="m101.875 224.201h-73.47c-.663 0-1.299-.263-1.768-.732l-25.905-25.906c-.469-.468-.732-1.104-.732-1.767v-190.043c0-3.172 2.581-5.753 5.753-5.753h143.013c3.172 0 5.753 2.581 5.753 5.753v133.31c0 1.381-1.119 2.5-2.5 2.5s-2.5-1.119-2.5-2.5v-133.31c0-.416-.338-.753-.753-.753h-143.013c-.415 0-.753.338-.753.753v189.007l24.441 24.441h72.434c1.381 0 2.5 1.119 2.5 2.5s-1.12 2.5-2.5 2.5z"/></g><g><path d="m126.525 64.211h-98.531c-1.381 0-2.5-1.119-2.5-2.5s1.119-2.5 2.5-2.5h98.532c1.381 0 2.5 1.119 2.5 2.5s-1.12 2.5-2.501 2.5z"/></g><g><path d="m126.525 76.504h-98.531c-1.381 0-2.5-1.119-2.5-2.5s1.119-2.5 2.5-2.5h98.531c1.381 0 2.5 1.119 2.5 2.5s-1.119 2.5-2.5 2.5z"/></g><g><path d="m126.525 101.092h-98.531c-1.381 0-2.5-1.119-2.5-2.5s1.119-2.5 2.5-2.5h98.531c1.381 0 2.5 1.119 2.5 2.5s-1.119 2.5-2.5 2.5z"/></g><g><path d="m126.525 88.798h-98.531c-1.381 0-2.5-1.119-2.5-2.5s1.119-2.5 2.5-2.5h98.532c1.381 0 2.5 1.119 2.5 2.5s-1.12 2.5-2.501 2.5z"/></g><g><path d="m126.525 150.267h-98.531c-1.381 0-2.5-1.119-2.5-2.5s1.119-2.5 2.5-2.5h98.532c1.381 0 2.5 1.119 2.5 2.5s-1.12 2.5-2.501 2.5z"/></g><g><path d="m126.525 137.973h-98.531c-1.381 0-2.5-1.119-2.5-2.5s1.119-2.5 2.5-2.5h98.532c1.381 0 2.5 1.119 2.5 2.5s-1.12 2.5-2.501 2.5z"/></g><g><path d="m126.526 113.386h-98.532c-1.381 0-2.5-1.119-2.5-2.5s1.119-2.5 2.5-2.5h98.532c1.381 0 2.5 1.119 2.5 2.5s-1.119 2.5-2.5 2.5z"/></g><g><path d="m126.525 125.679h-98.531c-1.381 0-2.5-1.119-2.5-2.5s1.119-2.5 2.5-2.5h98.532c1.381 0 2.5 1.119 2.5 2.5s-1.12 2.5-2.501 2.5z"/></g><g><path d="m102.814 183.37c-.116 0-.233-.008-.351-.025l-9.903-1.391c-1.367-.192-2.32-1.456-2.128-2.823.192-1.368 1.456-2.32 2.823-2.128l9.903 1.391c1.367.192 2.32 1.456 2.128 2.823-.174 1.249-1.245 2.153-2.472 2.153z"/></g><g><path d="m94.863 200.688c-1.041 0-2.012-.654-2.366-1.694-.445-1.307.253-2.728 1.56-3.173l9.465-3.226c1.31-.446 2.728.253 3.173 1.56s-.253 2.728-1.56 3.173l-9.465 3.226c-.268.091-.54.134-.807.134z"/></g><g><path d="m108.149 170.24c-.492 0-.99-.145-1.425-.447l-8.21-5.708c-1.133-.788-1.414-2.346-.625-3.48.789-1.133 2.346-1.414 3.48-.625l8.21 5.708c1.133.788 1.414 2.346.625 3.48-.485.698-1.264 1.072-2.055 1.072z"/></g><g><path d="m34.971 178.827c-.417 0-.848-.042-1.293-.131-3.533-.707-5.167-2.612-5.914-4.085-1.954-3.852.076-8.46.314-8.974.581-1.252 2.068-1.795 3.32-1.216 1.25.58 1.794 2.061 1.219 3.312-.336.745-1.128 3.186-.39 4.624.134.262.543 1.059 2.431 1.436 1.559.324 3.473-2.532 5.014-4.817.325-.481.643-.952.956-1.396.875-1.241 2.35-1.868 3.849-1.635 1.505.233 2.725 1.283 3.185 2.738 1.269 4.022 3.096 3.499 3.975 3.248 2.138-.611 3.757-2.389 5.47-4.272 2.527-2.777 5.987-6.58 11.491-4.222 1.269.544 1.857 2.013 1.313 3.283-.544 1.269-2.015 1.857-3.283 1.313-1.969-.844-2.953-.164-5.823 2.991-2.01 2.209-4.289 4.713-7.794 5.714-4.05 1.158-7.457-.579-9.389-4.675-2.017 2.982-4.693 6.764-8.651 6.764z"/></g><g><path d="m162.952 202.548c-2.097 0-4.125-.668-5.827-1.939l-34.384-25.667c-4.327-3.23-5.219-9.379-1.989-13.706 1.56-2.09 3.848-3.448 6.442-3.824 2.595-.377 5.174.276 7.264 1.835l34.383 25.667c2.089 1.56 3.448 3.848 3.824 6.442s-.275 5.174-1.835 7.263c-1.56 2.089-3.848 3.448-6.442 3.825-.48.07-.96.104-1.436.104zm-34.332-40.239c-.234 0-.471.017-.708.052-1.272.185-2.393.848-3.153 1.867-1.581 2.118-1.144 5.127.974 6.708l34.384 25.667c1.019.761 2.281 1.078 3.554.894 1.273-.185 2.393-.848 3.154-1.868.761-1.019 1.079-2.281.894-3.554-.185-1.272-.848-2.393-1.867-3.153l-34.383-25.667c-.832-.62-1.823-.946-2.849-.946z"/></g><g><path d="m205.759 145.205c-2.096 0-4.125-.668-5.828-1.939l-34.383-25.667c-2.089-1.56-3.448-3.848-3.825-6.442-.376-2.595.275-5.174 1.835-7.264s3.848-3.448 6.442-3.825c2.594-.378 5.173.275 7.264 1.835l34.383 25.667c2.09 1.56 3.448 3.848 3.824 6.442s-.275 5.174-1.835 7.264-3.848 3.448-6.442 3.824c-.479.07-.959.105-1.435.105zm-34.347-40.245c-1.462 0-2.907.665-3.847 1.924-1.581 2.118-1.144 5.127.974 6.708l34.383 25.667c1.02.761 2.281 1.081 3.554.894 1.272-.185 2.393-.848 3.153-1.867.761-1.02 1.079-2.282.894-3.555-.185-1.272-.848-2.393-1.867-3.153l-34.383-25.667c-.858-.642-1.864-.951-2.861-.951z"/></g><g><g><path d="m166.425 187.194c-.52 0-1.044-.162-1.494-.497-1.106-.826-1.333-2.393-.508-3.499l32.676-43.773c.826-1.106 2.391-1.334 3.499-.508 1.106.826 1.333 2.393.508 3.499l-32.676 43.774c-.491.657-1.243 1.004-2.005 1.004z"/></g><g><path d="m135.385 163.957c-.52 0-1.044-.162-1.494-.497-1.106-.826-1.333-2.393-.508-3.499l32.719-43.831c.825-1.106 2.392-1.333 3.499-.508 1.106.826 1.333 2.393.508 3.499l-32.719 43.831c-.491.658-1.243 1.005-2.005 1.005z"/></g></g><g><path d="m246.203 220.033c-2.038 0-4.091-.632-5.846-1.941l-62.581-46.716c-1.106-.826-1.333-2.393-.508-3.499.826-1.105 2.392-1.334 3.499-.508l62.581 46.716c2.116 1.581 5.127 1.145 6.708-.974 1.581-2.118 1.144-5.127-.974-6.708l-62.544-46.688c-1.106-.826-1.333-2.393-.508-3.499.826-1.106 2.391-1.334 3.499-.508l62.544 46.688c4.327 3.23 5.219 9.379 1.989 13.706-1.92 2.572-4.872 3.931-7.859 3.931z"/></g><g><path d="m193.52 256h-94.907c-5.4 0-9.793-4.393-9.793-9.793s4.393-9.793 9.793-9.793h94.907c5.4 0 9.793 4.393 9.793 9.793s-4.393 9.793-9.793 9.793zm-94.907-14.586c-2.643 0-4.793 2.15-4.793 4.793s2.15 4.793 4.793 4.793h94.907c2.643 0 4.793-2.15 4.793-4.793s-2.15-4.793-4.793-4.793z"/></g><g><g><path d="m191.066 240.563c-1.381 0-2.5-1.119-2.5-2.5v-11.112c0-5.238-4.262-9.5-9.5-9.5h-66c-5.238 0-9.5 4.262-9.5 9.5v10.798c0 1.381-1.119 2.5-2.5 2.5s-2.5-1.119-2.5-2.5v-10.798c0-7.995 6.505-14.5 14.5-14.5h66c7.995 0 14.5 6.505 14.5 14.5v11.112c0 1.381-1.119 2.5-2.5 2.5z"/></g></g><g><g><path d="m180.567 216.875c-1.381 0-2.5-1.119-2.5-2.5v-2.308c0-4.75-3.865-8.615-8.615-8.615h-46.77c-4.75 0-8.615 3.865-8.615 8.615v2.308c0 1.381-1.119 2.5-2.5 2.5s-2.5-1.119-2.5-2.5v-2.308c0-7.507 6.108-13.615 13.615-13.615h46.77c7.507 0 13.615 6.108 13.615 13.615v2.308c0 1.381-1.119 2.5-2.5 2.5z"/></g></g><g><path d="m215.237 197.627c-.52 0-1.045-.162-1.494-.497-1.106-.826-1.333-2.393-.508-3.499l7.767-10.404c.826-1.106 2.393-1.333 3.499-.508 1.106.826 1.333 2.393.508 3.499l-7.767 10.404c-.49.658-1.242 1.005-2.005 1.005z"/></g><g><path d="m191.884 152.172c-.52 0-1.044-.162-1.494-.497l-29.801-22.246c-1.106-.826-1.333-2.393-.508-3.499s2.392-1.334 3.499-.508l29.801 22.246c1.106.826 1.333 2.393.508 3.499-.491.658-1.243 1.005-2.005 1.005z"/></g><g><path d="m172.236 177.537c-.52 0-1.044-.162-1.494-.497l-29.375-21.927c-1.106-.826-1.333-2.393-.508-3.499.825-1.105 2.392-1.334 3.499-.508l29.375 21.927c1.106.826 1.333 2.393.508 3.499-.491.657-1.243 1.005-2.005 1.005z"/></g><g><path d="m112.015 46.913h-69.51c-3.451 0-6.258-2.808-6.258-6.258v-11.041c0-3.451 2.807-6.258 6.258-6.258h69.51c3.451 0 6.258 2.808 6.258 6.258v11.041c0 3.45-2.808 6.258-6.258 6.258zm-69.51-18.558c-.693 0-1.258.564-1.258 1.258v11.041c0 .694.564 1.258 1.258 1.258h69.51c.694 0 1.258-.564 1.258-1.258v-11.04c0-.694-.564-1.258-1.258-1.258h-69.51z"/></g><g><path d="m28.405 223.25c-1.381 0-2.5-1.119-2.5-2.5v-21.701c0-.416-.338-.753-.753-.753h-21.86c-1.381 0-2.5-1.119-2.5-2.5s1.119-2.5 2.5-2.5h21.86c3.172 0 5.753 2.581 5.753 5.753v21.701c0 1.381-1.119 2.5-2.5 2.5z"/></g></g></g><g id="Layer_13"/><g id="Layer_14"/><g id="Layer_15"/><g id="Layer_16"/><g id="Layer_17"/><g id="Layer_18"/><g id="Layer_19"/><g id="Layer_20"/><g id="Layer_21"/><g id="Layer_22"/><g id="Layer_23"/><g id="Layer_24"/><g id="Layer_25"/><g id="Layer_26"/><g id="Layer_27"/><g id="Layer_28"/><g id="Layer_29"/><g id="Layer_30"/><g id="Layer_31"/><g id="Layer_32"/><g id="Layer_33"/><g id="Layer_34"/><g id="Layer_35"/><g id="Layer_36"/><g id="Layer_37"/><g id="Layer_38"/><g id="Layer_39"/><g id="Layer_40"/><g id="Layer_41"/><g id="Layer_42"/><g id="Layer_43"/><g id="Layer_44"/><g id="Layer_45"/><g id="Layer_46"/><g id="Layer_47"/><g id="Layer_48"/><g id="Layer_49"/><g id="Layer_50"/><g id="Layer_51"/><g id="Layer_52"/><g id="Layer_53"/><g id="Layer_54"/><g id="Layer_55"/><g id="Layer_56"/><g id="Layer_57"/><g id="Layer_58"/><g id="Layer_59"/><g id="Layer_60"/><g id="Layer_61"/><g id="Layer_62"/><g id="Layer_63"/><g id="Layer_64"/><g id="Layer_65"/><g id="Layer_66"/><g id="Layer_67"/><g id="Layer_68"/><g id="Layer_69"/><g id="Layer_70"/><g id="Layer_71"/><g id="Layer_72"/><g id="Layer_73"/><g id="Layer_74"/><g id="Layer_75"/><g id="Layer_76"/><g id="Layer_77"/><g id="Layer_78"/><g id="Layer_79"/><g id="Layer_80"/><g id="Layer_81"/><g id="Layer_82"/><g id="Layer_83"/><g id="Layer_84"/><g id="Layer_85"/><g id="Layer_86"/><g id="Layer_87"/><g id="Layer_88"/><g id="Layer_89"/><g id="Layer_90"/><g id="Layer_91"/><g id="Layer_92"/><g id="Layer_93"/><g id="Layer_94"/><g id="Layer_95"/></svg>