<svg height="512" viewBox="0 0 64 64" width="512" xmlns="http://www.w3.org/2000/svg"><g isolation="isolate"><g id="a"><path d="m45 61h-32v-54c0-2.21-1.79-4-4-4h30c3.31 0 6 2.69 6 6z" fill="#ccc" mix-blend-mode="lighten"/><path d="m29 61h-16v-54c0-2.21-1.79-4-4-4h14c3.31 0 6 2.69 6 6z" fill="#f2f2f2"/><path d="m13 61c3.92 0 7.24-2.51 8.48-6h31.52c0 3.31-2.69 6-6 6z" fill="#3fa9f5"/><path d="m5 7c0-2.21 1.79-4 4-4s4 1.79 4 4" fill="#3fa9f5"/><circle cx="44" cy="32" fill="#3fd2f5" r="15"/><path d="m44 47c-8.28 0-15-6.72-15-15s6.72-15 15-15" fill="#3fa9f5"/><rect fill="#ffc81e" height="12" rx="2" width="4" x="42" y="30"/><circle cx="44" cy="25" fill="#ffc81e" r="2"/><path d="m4 7c0 .55.45 1 1 1h7v21h2v-22c0-1.13-.39-2.16-1.03-3h26.03c2.76 0 5 2.24 5 5v7c-3.47 0-6.67 1.12-9.29 3h-12.71v2h10.41c-1.12 1.18-2.05 2.53-2.78 4h-13.63v2h12.81c-.42 1.27-.67 2.61-.76 4h-6.05v2h6.05c.09 1.39.34 2.73.76 4h-12.81v2h13.63c.72 1.47 1.66 2.82 2.78 4h-10.41v2h12.71c2.62 1.88 5.83 3 9.29 3v6h-22.52c-.42 0-.8.27-.94.67-1.02 2.87-3.58 4.9-6.54 5.27v-24.94h-2v26c0 .55.45 1 1 1h34c1.88 0 3.64-.73 4.94-2.05 1.33-1.31 2.06-3.07 2.06-4.95 0-.55-.45-1-1-1h-7v-6.14c7.88-.99 14-7.72 14-15.86s-6.12-14.87-14-15.86v-7.14c0-3.86-3.14-7-7-7h-30c-2.76 0-5 2.24-5 5zm47.9 49c-.19.96-.66 1.83-1.37 2.54-.94.94-2.19 1.46-3.53 1.46h-28.01c1.36-1.02 2.47-2.39 3.17-4zm6.1-24c0 7.72-6.28 14-14 14s-14-6.28-14-14 6.28-14 14-14 14 6.28 14 14zm-49-28c1.3 0 2.42.84 2.83 2h-5.66c.41-1.16 1.53-2 2.83-2z"/><path d="m12 31h2v2h-2z"/><path d="m44 29c-1.65 0-3 1.35-3 3v8c0 1.65 1.35 3 3 3s3-1.35 3-3v-8c0-1.65-1.35-3-3-3zm1 11c0 .55-.45 1-1 1s-1-.45-1-1v-8c0-.55.45-1 1-1s1 .45 1 1z"/><path d="m41 25c0 1.65 1.35 3 3 3s3-1.35 3-3-1.35-3-3-3-3 1.35-3 3zm4 0c0 .55-.45 1-1 1s-1-.45-1-1 .45-1 1-1 1 .45 1 1z"/><path d="m16 7h4v2h-4z"/><path d="m22 7h20v2h-20z"/><path d="m38 13h4v2h-4z"/><path d="m16 13h20v2h-20z"/><path d="m16 19h4v2h-4z"/><path d="m16 31h4v2h-4z"/><path d="m16 43h4v2h-4z"/><path d="m38 49h4v2h-4z"/><path d="m16 49h20v2h-20z"/></g></g></svg>