<svg height="489pt" viewBox="-3 0 489 489.7432" width="489pt" xmlns="http://www.w3.org/2000/svg"><path d="m259.070312 294.941406c1.101563-1.597656 2.203126-3.199218 3.402344-4.796875 1-1.402343 2.097656-2.703125 3.199219-4 15.25-18.554687 35.742187-32.074219 58.800781-38.800781 2.199219-.601562 4.300782-1.199219 6.5-1.699219 8.664063-1.9375 17.519532-2.910156 26.398438-2.902343 17.390625-.027344 34.566406 3.796874 50.300781 11.199218.898437.402344 1.800781.902344 2.601563 1.300782 40.617187 20.421874 66.207031 62.039062 66.097656 107.5 0 66.300781-53.300782 120-119.097656 120-47.902344 0-89.101563-28.5-108-69.5l-1.203126-2.699219c-.898437-2-1.699218-4.101563-2.398437-6.101563 0-.097656 0-.097656-.101563-.199218-.398437-1.097657-.796874-2.199219-1.097656-3.300782-11.890625-35.679687-6.496094-74.859375 14.597656-106zm0 0" fill="#00efd1"/><g fill="#083863"><path d="m415.371094 249.941406c.71875-6.707031 1.085937-13.449218 1.101562-20.199218.0625-102.453126-81.578125-186.273438-184-188.898438-3.199218-.101562-6.5-.101562-9.800781 0-51.726563 1.277344-100.652344 23.769531-135.300781 62.199219-64.835938 72-64.792969 181.351562.101562 253.300781 16.847656 18.710938 37.285156 33.84375 60.097656 44.5 23.546876 11.109375 49.171876 17.140625 75.203126 17.699219 1.597656 0 3.296874.101562 4.898437.101562 1.800781 0 3.398437 0 4.898437-.101562 3.800782-.101563 7.601563-.300781 11.300782-.601563 21 43.703125 65.300781 71.800782 113.5 71.800782 69.5 0 126.101562-57 126.101562-127 .140625-47.363282-26.121094-90.863282-68.101562-112.800782zm-322.5 91.203125c-24.425782-29.433593-38.480469-66.085937-40-104.300781h64c.429687 25.621094 4.8125 51.019531 13 75.300781-13.507813 8.066407-25.9375 17.808594-37 29zm0-222.703125c11.046875 11.277344 23.519531 21.058594 37.101562 29.101563-8 23.300781-12.300781 48.601562-13 75.300781h-64c1.417969-38.25 15.445313-74.957031 39.898438-104.402344zm269.101562-.5c24.660156 29.550782 38.832032 66.441406 40.300782 104.902344h-64c-.414063-25.726562-4.832032-51.234375-13.101563-75.601562 13.4375-8.195313 25.800781-18.035157 36.800781-29.300782zm-127.402344 273.902344c.703126 3.199219 1.601563 6.300781 2.601563 9.398438-.898437.5-1.699219.902343-2.601563 1.402343zm-14-106.402344c-27.1875.976563-53.851562 7.761719-78.199218 19.902344-7-21.199219-10.800782-44.199219-11.5-68.5h89.699218zm-89.699218-62.597656c.453125-23.273438 4.328125-46.355469 11.5-68.5 24.351562 12.128906 51.015625 18.914062 78.199218 19.898438v48.601562zm103.699218-48.601562c27.179688-.980469 53.824219-7.839844 78.101563-20.097657 7.171875 22.214844 11.046875 45.359375 11.5 68.699219h-89.699219v-48.601562zm0-14.097657v-103.101562c32.703126 17.300781 57.902344 46.101562 73.300782 83.898437-22.738282 11.675782-47.757813 18.230469-73.300782 19.203125zm-14 0c-25.558593-.976562-50.605468-7.492187-73.398437-19.101562 15.398437-37.898438 40.601563-66.699219 73.398437-84.101563zm0 139.296875v103.203125c-32.796874-17.402343-58-46.203125-73.398437-84.101562 22.792969-11.609375 47.839844-18.125 73.398437-19.101563zm14 34.101563v-34.199219c4.300782.199219 8.601563.5 12.902344 1-5.8125 10.417969-10.152344 21.589844-12.902344 33.199219zm25.703126-51.800781c-1.101563 1.402343-2.300782 2.800781-3.402344 4.300781-.367188.441406-.699219.910156-1 1.398437-7-1-14.097656-1.699218-21.199219-2v-48.597656h89.699219c0 1.097656-.097656 2.199219-.097656 3.398438-.601563.199218-1.101563.300781-1.703126.5-24.457031 7-46.195312 21.304687-62.296874 41zm78-44.898438h2.699218c-.90625.082031-1.808594.21875-2.699218.398438zm64 0c-.101563 2.398438-.203126 4.699219-.402344 7.097656-9.058594-3.449218-18.488282-5.832031-28.097656-7.097656zm-49.703126-129.402344c-9.703124 10.066406-20.582031 18.929688-32.398437 26.402344-13.101563-31.300781-32.5-56.800781-57.101563-75.402344 34.058594 7.027344 65.230469 24.097656 89.5 49zm-199.097656-36c12.359375-5.769531 25.347656-10.097656 38.699219-12.898437-24.699219 18.601562-44.199219 44.199219-57.199219 75.601562-11.941406-7.347656-22.925781-16.148437-32.699218-26.203125 14.679687-15.203125 32.035156-27.578125 51.199218-36.5zm-51.300781 280.203125c9.773437-10.054687 20.757813-18.855469 32.699219-26.203125 13.101562 31.402344 32.5 57 57.199218 75.601563-13.375-2.707031-26.371093-7.039063-38.699218-12.898438-19.132813-8.972656-36.480469-21.339843-51.199219-36.5zm255.101563 124.097657c-43.761719-.167969-83.445313-25.726563-101.703126-65.5-.40625-.8125-.773437-1.648438-1.097656-2.5-.800781-1.800782-1.601562-3.800782-2.300781-5.800782v-.199218c-.398437-1-.699219-2-1.101563-3.097657-11.148437-33.640625-6.050781-70.546875 13.800782-99.902343.902344-1.398438 1.902344-2.800782 3.199218-4.5 1-1.300782 2-2.5 3-3.800782 14.320313-17.476562 33.601563-30.203125 55.300782-36.5 2.199218-.597656 4.199218-1.097656 6.199218-1.597656 8.140626-1.832031 16.457032-2.769531 24.800782-2.800781 16.351562-.046875 32.507812 3.539062 47.300781 10.5.800781.398437 1.699219.800781 2.5 1.199219 38.261719 19.210937 62.378906 58.390624 62.300781 101.199218-.101562 62.601563-50.402344 113.300782-112.199218 113.300782zm0 0"/><path d="m50.171875 369.742188c4.199219 5.5 8.601563 10.800781 13.199219 15.800781l10.402344-9.398438c-4.300782-4.703125-8.5-9.800781-12.402344-14.902343zm0 0"/><path d="m25.371094 292.84375-13.300782 4.300781c2.101563 6.5 4.601563 13 7.203126 19.296875l12.898437-5.5c-2.5-5.898437-4.800781-12-6.800781-18.097656zm0 0"/><path d="m40.472656 328.542969-12.402344 6.5c3.203126 6 6.601563 12 10.300782 17.800781l11.800781-7.5c-3.5-5.402344-6.699219-11.101562-9.699219-16.800781zm0 0"/><path d="m16.273438 255.042969-13.800782 2.101562c.898438 6.097657 2.300782 12.699219 4 20.097657l13.597656-3.199219c-1.699218-7-2.898437-13.300781-3.796874-19zm0 0"/><path d="m14.371094 231.242188c0-3 .101562-6.097657.300781-9.199219l-14-.800781c-.199219 3.402343-.300781 6.699218-.300781 10 0 1.800781 0 3.5.101562 5.300781l14-.5c-.101562-1.601563-.101562-3.199219-.101562-4.800781zm0 0"/><path d="m218.273438 445.34375c-22.914063-1.207031-45.476563-6.136719-66.800782-14.601562-9.070312-3.617188-17.859375-7.894532-26.300781-12.800782-2.898437-1.699218-5.898437-3.5-8.898437-5.5-1.601563-1.097656-3-2-4.300782-2.898437-6.300781-4.320313-12.375-8.960938-18.199218-13.898438l-9.101563 10.597657c6.175781 5.304687 12.652344 10.246093 19.398437 14.800781 1.402344 1 2.902344 2 4.601563 3.101562 3.199219 2.097657 6.398437 4 9.5 5.796875 9.042969 5.207032 18.429687 9.785156 28.101563 13.703125 22.71875 9.050781 46.773437 14.320313 71.199218 15.597657 4.398438.199218 10.898438.5 16.699219.5h2.898437l-.296874-14c-5.5.101562-13.300782-.097657-18.5-.398438zm0 0"/><path d="m47.070312 106.542969h32.203126v-14h-15.203126c19.152344-21.613281 42.011719-39.628907 67.5-53.199219 35.101563-18.5 73.402344-27.199219 111-25.101562 72.800782 4.101562 119.902344 41 146.601563 71.199218 33.898437 38.402344 54.601563 88.601563 56.800781 137.703125.300782 6.398438.199219 12.699219-.101562 18.796875l14 .800782c.382812-6.757813.417968-13.535157.101562-20.300782-2.300781-52.199218-24.300781-105.597656-60.300781-146.296875-39.585937-45.523437-96.042969-72.902343-156.300781-75.800781-40.097656-2.300781-81 7-118.300782 26.699219-26.800781 14.222656-50.84375 33.121093-71 55.800781v-15.800781h-14v32.5c-.011718 1.859375.722657 3.648437 2.039063 4.960937 1.316406 1.316406 3.101563 2.050782 4.960937 2.039063zm0 0"/><path d="m350.273438 411.941406c-5.515626 5.605469-13.039063 8.777344-20.902344 8.800782-12.015625-.097657-22.796875-7.390626-27.363282-18.503907-4.5625-11.113281-2.015624-23.882812 6.464844-32.394531l17.5-17.601562-9.902344-9.898438-17.5 17.5c-12.53125 12.496094-16.320312 31.304688-9.609374 47.679688 6.714843 16.378906 22.613281 27.113281 40.3125 27.21875h.097656c11.585937.03125 22.695312-4.621094 30.800781-12.898438l17.5-17.699219-10-9.800781zm0 0"/><path d="m385.273438 290.742188c-11.617188-.03125-22.757813 4.621093-30.902344 12.902343l-17.5 17.699219 10 9.800781 17.5-17.703125c5.511718-5.605468 13.039062-8.773437 20.902344-8.796875 12.011718.097657 22.796874 7.390625 27.359374 18.503907 4.566407 11.113281 2.019532 23.882812-6.460937 32.394531l-17.5 17.601562 9.898437 9.898438 17.5-17.601563c12.609376-12.457031 16.429688-31.300781 9.675782-47.6875-6.757813-16.386718-22.75-27.058594-40.472656-27.011718zm0 0"/><path d="m325.855469 384.53125 52.960937-53.386719 9.941406 9.859375-52.964843 53.386719zm0 0"/></g></svg>