<svg height="512" viewBox="0 0 64 64" width="512" xmlns="http://www.w3.org/2000/svg"><g id="Social-Group-Network-Chat-Communication"><path d="m34 41.65v3.35a2 2 0 0 1 -4 0v-3.35a5.889 5.889 0 0 0 4 0z" fill="#ffc477"/><path d="m14 42.65v3.35a2 2 0 0 1 -4 0v-3.35a5.889 5.889 0 0 0 4 0z" fill="#ffc477"/><path d="m25 33h2a0 0 0 0 1 0 0v4a0 0 0 0 1 0 0h-2a2 2 0 0 1 -2-2 2 2 0 0 1 2-2z" fill="#ffb655"/><path d="m28 6v14a3 3 0 0 1 -3 3h-2v4l-4-4h-12a3 3 0 0 1 -3-3v-14a3 3 0 0 1 3-3h18a3 3 0 0 1 3 3z" fill="#00ccb3"/><path d="m20.41 38.41a1.955 1.955 0 0 1 -1.41.59h-2v-4h2a2.006 2.006 0 0 1 2 2 1.955 1.955 0 0 1 -.59 1.41z" fill="#ffb655"/><path d="m7 38v1h-2a2.015 2.015 0 0 1 -2-2 2.006 2.006 0 0 1 2-2h2z" fill="#ffb655"/><path d="m15 30h3v4h-3z" fill="#3e3d42"/><path d="m14 42.65v2a5.889 5.889 0 0 1 -4 0v-2a5.889 5.889 0 0 0 4 0z" fill="#ffb655"/><path d="m6 38v-4a2.006 2.006 0 0 1 2-2h8a2.006 2.006 0 0 1 2 2v4a5.981 5.981 0 0 1 -4 5.65 5.889 5.889 0 0 1 -4 0 5.981 5.981 0 0 1 -4-5.65z" fill="#ffc477"/><path d="m8 32a2.006 2.006 0 0 0 -2 2v-4a3 3 0 0 1 3-3h9v3a2.006 2.006 0 0 1 -2 2z" fill="#57565c"/><path d="m47 40v1h-2a2.015 2.015 0 0 1 -2-2 2.006 2.006 0 0 1 2-2h2z" fill="#ffb655"/><path d="m60.41 40.41a1.955 1.955 0 0 1 -1.41.59h-2v-4h2a2.006 2.006 0 0 1 2 2 1.955 1.955 0 0 1 -.59 1.41z" fill="#ffb655"/><path d="m61 36v8a8.953 8.953 0 0 1 -2.52 6.24h-12.96a8.953 8.953 0 0 1 -2.52-6.24v-8a9 9 0 0 1 18 0z" fill="#57565c"/><path d="m54 44.65v3.35a2 2 0 0 1 -4 0v-3.35a5.889 5.889 0 0 0 4 0z" fill="#ffc477"/><path d="m54 44.65v2a5.889 5.889 0 0 1 -4 0v-2a5.889 5.889 0 0 0 4 0z" fill="#ffb655"/><path d="m46 40v-5a11.355 11.355 0 0 0 8-3l4 3v5a5.944 5.944 0 0 1 -1.76 4.24 5.958 5.958 0 0 1 -6.24 1.41 5.981 5.981 0 0 1 -4-5.65z" fill="#ffc477"/><path d="m58 61h-16v-5.29a6 6 0 0 1 3.32-5.37l.2-.1 4.48-2.24a2 2 0 0 0 4 0l4.48 2.24.2.1a6 6 0 0 1 3.32 5.37v5.29z" fill="#ed539d"/><path d="m39 33a2.006 2.006 0 0 1 2 2 2.015 2.015 0 0 1 -2 2h-2v-4z" fill="#ffb655"/><path d="m38 33v1l-3-2h-6l-3 2v-3a4 4 0 0 1 4-4h4a4 4 0 0 1 4 4z" fill="#57565c"/><path d="m34 41.65v2a5.889 5.889 0 0 1 -4 0v-2a5.889 5.889 0 0 0 4 0z" fill="#ffb655"/><path d="m38 34v3a5.981 5.981 0 0 1 -4 5.65 5.889 5.889 0 0 1 -4 0 5.981 5.981 0 0 1 -4-5.65v-3l3-2h6z" fill="#ffc477"/><path d="m26 61h-4v-8.29a6 6 0 0 1 3.32-5.37l4.68-2.34a2 2 0 0 0 4 0l4.68 2.34a6 6 0 0 1 3.32 5.37v8.29z" fill="#3d9ae2"/><path d="m18 61h-16v-7.29a6 6 0 0 1 3.32-5.37l4.68-2.34a2 2 0 0 0 4 0l4.68 2.34a6 6 0 0 1 3.32 5.37v7.29z" fill="#ff6243"/><path d="m23.73 13h-2.73v-2a2.006 2.006 0 0 0 -2-2h-2v3a1 1 0 0 1 -1 1h-5v8h13.12a1 1 0 0 0 .99-.88l.61-4.87a2 2 0 0 0 -1.99-2.25z" fill="#00b39d"/><path d="m9 11h4v8h-4z" fill="#3d9ae2"/><path d="m19 11h2.73a2 2 0 0 1 1.99 2.25l-.61 4.87a1 1 0 0 1 -.99.88h-9.12v-8h1a1 1 0 0 0 1-1v-3h2a2.006 2.006 0 0 1 2 2z" fill="#ffc477"/><path d="m38 20v-12a2.006 2.006 0 0 1 2-2h18a2.006 2.006 0 0 1 2 2v12a2.006 2.006 0 0 1 -2 2h-11l-2 4-2-4h-3a2.006 2.006 0 0 1 -2-2z" fill="#ffde55"/><path d="m34.5 39.33-1-1.73a3.057 3.057 0 0 1 -3 0l-1 1.732a5 5 0 0 0 5 0z"/><path d="m50.5 40.6-1 1.73a5 5 0 0 0 5 0l-1-1.73a3.06 3.06 0 0 1 -3 0z"/><path d="m49 37h2v2h-2z"/><path d="m53 37h2v2h-2z"/><path d="m60.01 49.97a9.941 9.941 0 0 0 1.99-5.97v-8a10.021 10.021 0 0 0 -10-10 10.016 10.016 0 0 0 -10 10v8a9.941 9.941 0 0 0 1.99 5.97 6.859 6.859 0 0 0 -1.2 1.08 6.941 6.941 0 0 0 -3.66-4.6l-4.13-2.07v-1.07a7 7 0 0 0 3.92-5.31h.08a3 3 0 0 0 0-6v-1a5 5 0 0 0 -5-5h-4a5 5 0 0 0 -5 5v1a3 3 0 0 0 0 6h.08a7.03 7.03 0 0 0 3.92 5.32v1.06l-4.13 2.07a6.962 6.962 0 0 0 -3.17 3.22 6.919 6.919 0 0 0 -2.57-2.22l-4.13-2.07v-1.06a7.052 7.052 0 0 0 3.71-4.32h.29a3 3 0 0 0 0-6 2.974 2.974 0 0 0 -.78-2 2.974 2.974 0 0 0 .78-2v-3a1 1 0 0 0 -1-1h-9a4 4 0 0 0 -4 4v4a3 3 0 0 0 0 6h.29a7.052 7.052 0 0 0 3.71 4.32v1.06l-4.13 2.07a6.95 6.95 0 0 0 -3.87 6.26v7.29a1 1 0 0 0 1 1h60a1 1 0 0 0 1-1v-5.29a6.981 6.981 0 0 0 -2.99-5.74zm-21.01-15.97a1 1 0 0 1 0 2zm-14 2a1 1 0 0 1 0-2zm-6 0a1 1 0 0 1 0 2zm-14 2a1 1 0 0 1 0-2zm2-8a2.006 2.006 0 0 1 2-2h8v2a1 1 0 0 1 -1 1h-8a3 3 0 0 0 -1 .18zm0 8v-4a1 1 0 0 1 1-1h8a1 1 0 0 1 1 1v4a5 5 0 0 1 -10 0zm6 6.92v1.08a1 1 0 0 1 -2 0v-1.08a6.29 6.29 0 0 0 2 0zm8 15.08h-2v-8h-2v8h-10v-8h-2v8h-2v-6.29a4.985 4.985 0 0 1 2.77-4.48l3.61-1.8a2.971 2.971 0 0 0 5.24 0l3.61 1.8a4.985 4.985 0 0 1 2.77 4.48zm6-29a3.009 3.009 0 0 1 3-3h4a3.009 3.009 0 0 1 3 3v1.13l-1.45-.96a.967.967 0 0 0 -.55-.17h-6a.967.967 0 0 0 -.55.17l-1.45.96zm0 6v-2.46l2.3-1.54h5.4l2.3 1.54v2.46a5 5 0 0 1 -10 0zm6 6.92v1.08a1 1 0 0 1 -2 0v-1.08a6.29 6.29 0 0 0 2 0zm8 16.08h-2v-8h-2v8h-10v-8h-2v8h-2v-7.29a4.985 4.985 0 0 1 2.77-4.48l3.61-1.8a2.971 2.971 0 0 0 5.24 0l3.61 1.8a4.985 4.985 0 0 1 2.77 4.48zm3-24a8.011 8.011 0 0 1 8-8 8.006 8.006 0 0 1 8 8v.18a3 3 0 0 0 -1-.18v-1a1.014 1.014 0 0 0 -.4-.8l-4-3a1 1 0 0 0 -1.31.09 10.305 10.305 0 0 1 -7.29 2.71 1 1 0 0 0 -1 1v1a3 3 0 0 0 -1 .18zm8 9a5 5 0 0 1 -5-5v-4.03a12.374 12.374 0 0 0 7.06-2.67l2.94 2.2v4.5a5 5 0 0 1 -5 5zm1 1.92v1.08a1 1 0 0 1 -2 0v-1.08a6.29 6.29 0 0 0 2 0zm2-.61a7.007 7.007 0 0 0 3.71-4.31h.29a3 3 0 0 0 1-.18v2.18a7.917 7.917 0 0 1 -1.76 5l-3.24-1.62zm4-6.31v-2a1 1 0 0 1 0 2zm-14-2v2a1 1 0 0 1 0-2zm-1 3.82a3 3 0 0 0 1 .18h.29a7.007 7.007 0 0 0 3.71 4.31v1.07l-3.24 1.62a7.917 7.917 0 0 1 -1.76-5zm17 18.18h-2v-6h-2v6h-10v-6h-2v6h-2v-4.29a4.985 4.985 0 0 1 2.77-4.48l3.61-1.8a2.971 2.971 0 0 0 5.24 0l3.61 1.8a4.985 4.985 0 0 1 2.77 4.48z"/><path d="m14.5 40.331-1-1.732a3.054 3.054 0 0 1 -3 0l-1 1.732a5.006 5.006 0 0 0 5 0z"/><path d="m9 35h2v2h-2z"/><path d="m13 35h2v2h-2z"/><path d="m29 34h2v2h-2z"/><path d="m33 34h2v2h-2z"/><path d="m40 23h2.382l1.723 3.447a1 1 0 0 0 1.79 0l1.723-3.447h10.382a3 3 0 0 0 3-3v-12a3 3 0 0 0 -3-3h-18a3 3 0 0 0 -3 3v12a3 3 0 0 0 3 3zm-1-15a1 1 0 0 1 1-1h18a1 1 0 0 1 1 1v12a1 1 0 0 1 -1 1h-11a1 1 0 0 0 -.9.553l-1.1 2.211-1.1-2.211a1 1 0 0 0 -.9-.553h-3a1 1 0 0 1 -1-1z"/><path d="m25 2h-18a4 4 0 0 0 -4 4v14a4 4 0 0 0 4 4h11.59l3.7 3.71a1.007 1.007 0 0 0 .71.29.838.838 0 0 0 .38-.08.987.987 0 0 0 .62-.92v-3h1a4 4 0 0 0 4-4v-14a4 4 0 0 0 -4-4zm2 18a2.006 2.006 0 0 1 -2 2h-2a1 1 0 0 0 -1 1v1.59l-2.29-2.3a1.033 1.033 0 0 0 -.71-.29h-12a2.006 2.006 0 0 1 -2-2v-14a2.006 2.006 0 0 1 2-2h18a2.006 2.006 0 0 1 2 2z"/><path d="m23.98 11.01a3.017 3.017 0 0 0 -2.25-1.01h-1.73v-1a3.009 3.009 0 0 0 -3-3h-2a1 1 0 0 0 -1 1v3h-5a1 1 0 0 0 -1 1v8a1 1 0 0 0 1 1h13.12a2 2 0 0 0 1.98-1.75l.61-4.88a3 3 0 0 0 -.73-2.36zm-11.98 6.99h-2v-6h2zm10.12 0h-8.12v-6a2.006 2.006 0 0 0 2-2v-2h1a1 1 0 0 1 1 1v1h-1v2h4.73a.966.966 0 0 1 .75.34.987.987 0 0 1 .25.78z"/><path d="m41 9h2v2h-2z"/><path d="m45 9h12v2h-12z"/><path d="m41 13h12v2h-12z"/><path d="m55 13h2v2h-2z"/><path d="m41 17h16v2h-16z"/></g></svg>