<svg width="249" height="299" viewBox="0 0 249 299" fill="none" xmlns="http://www.w3.org/2000/svg">
<path fill-rule="evenodd" clip-rule="evenodd" d="M128.341 119.094C128.341 126.243 122.545 132.039 115.395 132.039C108.245 132.039 102.449 126.243 102.449 119.094V109.947C102.449 81.5457 125.639 58.3555 154.04 58.3555C182.442 58.3555 205.632 81.5451 205.632 109.947V274.81C205.632 281.96 199.836 287.756 192.686 287.756C185.536 287.756 179.74 281.96 179.74 274.81V109.947C179.74 95.8385 168.149 84.2475 154.04 84.2475C139.931 84.2475 128.339 95.8391 128.339 109.947V119.094H128.341Z" fill="#DA8C36"/>
<path fill-rule="evenodd" clip-rule="evenodd" d="M177.218 268.57H208.157C210.073 268.57 211.689 269.841 212.142 271.703L216.894 291.243C217.07 291.966 216.919 292.661 216.46 293.245C216 293.83 215.36 294.141 214.617 294.141H170.757C170.013 294.141 169.374 293.83 168.914 293.246C168.455 292.661 168.304 291.966 168.479 291.244L173.232 271.703C173.686 269.841 175.302 268.57 177.218 268.57Z" fill="#C97629"/>
<path fill-rule="evenodd" clip-rule="evenodd" d="M41.3008 75.8857L58.01 13.5273C62.0477 16.8854 65.6576 19.593 69.0227 21.7041C72.9684 24.335 76.9762 26.1508 81.2588 27.0285C85.7992 28.017 90.3203 27.833 95.4332 26.6629C95.4385 26.6617 95.4443 26.6605 95.4496 26.6594L129.365 18.884C137.087 17.1133 144.346 17.7977 151.209 21.7604L236.022 70.726C243.59 75.0953 246.205 84.8617 241.837 92.4309C237.469 99.9994 227.7 102.617 220.132 98.2475L161.068 64.1477C161.113 64.2959 161.155 64.4453 161.196 64.5953C163.732 73.91 158.168 83.6359 148.853 86.1719L89.6418 102.287C81.7832 103.328 74.6482 101.424 68.3541 96.6033L41.3008 75.8857Z" fill="#FFD6BD"/>
<path fill-rule="evenodd" clip-rule="evenodd" d="M141.705 60.0326C149.719 57.8552 158.012 61.6468 161.8 68.6681C161.761 67.317 161.564 65.9511 161.195 64.5935C158.656 55.266 148.946 49.7048 139.619 52.2502C128.094 55.3961 116.552 58.4306 105.01 61.5232C102.862 62.0986 101.576 64.3269 102.151 66.475C102.726 68.6236 104.955 69.9097 107.103 69.3343C118.622 66.2488 130.129 63.1779 141.705 60.0326Z" fill="#F9C6AA"/>
<path fill-rule="evenodd" clip-rule="evenodd" d="M45.5687 89.0946L65.9939 12.8677C66.4919 11.0085 65.3786 9.07957 63.5195 8.58152L49.4312 4.80633C47.5726 4.30828 45.6437 5.42215 45.145 7.28133L24.7204 83.5083C24.2224 85.3675 25.3357 87.2964 27.1948 87.7944L41.2831 91.5696C43.1417 92.0677 45.0706 90.9538 45.5687 89.0946Z" fill="#64B5F6"/>
<path fill-rule="evenodd" clip-rule="evenodd" d="M4.69531 182.141C81.5522 182.185 119.958 182.185 119.913 182.141V269.914C119.913 283.294 94.1211 294.141 62.3047 294.141C30.4883 294.141 4.69531 283.294 4.69531 269.914V182.141Z" fill="#FFC700"/>
<path d="M62.3041 206.368C94.1206 206.368 119.913 195.521 119.913 182.141C119.913 168.761 94.1206 157.914 62.3041 157.914C30.4876 157.914 4.69531 168.761 4.69531 182.141C4.69531 195.521 30.4876 206.368 62.3041 206.368Z" fill="#F4A40E"/>
<path fill-rule="evenodd" clip-rule="evenodd" d="M62.2238 235.626C30.9225 235.626 6.29082 225.47 4.69531 212.69V240.657C4.69531 254.037 30.4877 264.883 62.3047 264.883C94.1211 264.883 119.913 254.037 119.913 240.657L119.833 211.398C119.833 224.779 93.5252 235.626 62.2238 235.626Z" fill="#F4A40E"/>
<path d="M160.364 199.941C161.06 170.944 138.117 146.873 109.12 146.177C80.1228 145.481 56.0517 168.423 55.3558 197.42C54.6599 226.417 77.6026 250.488 106.6 251.184C135.597 251.88 159.668 228.937 160.364 199.941Z" fill="#FFDA2D"/>
<path d="M109.177 236.801C130.3 236.04 146.805 218.299 146.044 197.177C145.283 176.054 127.543 159.548 106.421 160.309C85.2987 161.07 68.7928 178.811 69.554 199.933C70.3152 221.056 88.0551 237.562 109.177 236.801Z" fill="#FDB800"/>
<path fill-rule="evenodd" clip-rule="evenodd" d="M237.774 90.0885C236.282 92.6643 233.878 94.51 230.975 95.2893C228.074 96.0656 225.062 95.676 222.492 94.1895L164.9 60.9521C160.782 50.5887 149.396 44.7328 138.398 47.7287L106.755 56.3373C104.268 57.0199 102.803 59.5957 103.467 62.0936C104.157 64.5891 106.727 66.065 109.215 65.3848L140.857 56.7762C147.711 54.9082 154.813 58.9705 156.664 65.8266C158.544 72.6826 154.481 79.7824 147.628 81.6475L88.7367 97.6787C82.1871 98.4744 76.4666 96.9053 71.216 92.884L53.1146 79.033L67.2914 26.1639C76.6043 32.1164 85.8346 33.6697 96.5021 31.2264L130.41 23.4527C137.319 21.8666 143.371 22.6406 148.871 25.8182L233.684 74.785C239.017 77.8734 240.87 84.7383 237.774 90.0885ZM48.6258 0H48.4107C47.0303 0.0181641 45.6756 0.390234 44.4375 1.10273C42.5309 2.19727 41.1768 3.96035 40.6236 6.06914L20.2008 82.2979C19.0125 86.659 21.6105 91.1549 25.977 92.3238L40.0711 96.099C40.7895 96.2871 41.4803 96.3809 42.1992 96.3809C43.609 96.3809 45.0182 96.0076 46.2891 95.2781C48.1957 94.1836 49.5223 92.4182 50.1029 90.3094L50.4896 88.8311L65.4955 100.327C71.5201 104.934 78.2355 107.255 85.5035 107.255C87.0785 107.255 88.6541 107.147 90.2572 106.935C90.4781 106.907 90.6721 106.866 90.8654 106.811L97.9957 104.873C97.8574 106.559 97.7742 108.253 97.7742 109.95V119.098C97.7742 128.82 105.678 136.729 115.406 136.729C125.133 136.729 133.037 128.82 133.037 119.098V109.95C133.037 103.238 136.298 96.9451 141.77 92.9625L150.088 90.6967C151.663 90.2684 153.155 89.6742 154.537 88.95C165.895 89.2154 175.043 98.5283 175.043 109.95V263.885H173.993C171.837 263.885 169.958 265.363 169.433 267.463L163.215 293.034C162.884 294.433 163.215 295.908 164.099 297.039C164.984 298.169 166.338 298.829 167.775 298.829H217.601C219.039 298.829 220.392 298.169 221.277 297.039C222.189 295.908 222.493 294.433 222.161 293.034L215.943 267.463C215.418 265.363 213.539 263.885 211.383 263.885H210.333V109.95C210.333 105.584 209.836 101.306 208.841 97.1496L217.795 102.306C220.945 104.128 224.455 105.059 228.02 105.059C229.816 105.059 231.612 104.824 233.409 104.346C238.715 102.918 243.164 99.5209 245.9 94.776C251.565 84.9492 248.194 72.3387 238.355 66.668L153.57 17.7035C146.026 13.3453 137.514 12.2068 128.312 14.3156L94.4033 22.0922C85.4215 24.1564 77.9326 22.4953 69.8631 16.5568L70.5264 14.0807C71.6871 9.72246 69.0891 5.22363 64.7227 4.05469L50.6555 0.281836C49.9811 0.102539 49.3008 0.00878906 48.6258 0ZM200.936 109.95C200.936 102.967 199.444 96.2625 196.459 90L166.253 72.5484C165.783 75.5496 164.733 78.4072 163.13 80.952C175.455 84.8291 184.437 96.3615 184.437 109.95V263.885H200.936L200.936 109.95ZM211.631 289.455H173.743L177.667 273.261H207.707L211.631 289.455ZM123.668 109.95C123.668 105.445 124.663 101.074 126.542 97.1051L107.778 102.209C107.364 104.76 107.142 107.352 107.142 109.949V119.097C107.142 123.649 110.845 127.355 115.405 127.355C119.965 127.355 123.668 123.649 123.668 119.097V109.95ZM41.342 86.7363L43.2492 79.6811C43.2492 79.6729 43.2492 79.6646 43.2492 79.6588L61.1566 12.8033L49.384 9.64453L29.5418 83.5746L41.342 86.7363ZM121.595 206.881C121.595 212.676 117.727 217.593 112.476 219.209V220.458C112.476 223.048 110.376 225.145 107.778 225.145C105.18 225.145 103.08 223.048 103.08 220.458V219.408C100.151 218.69 97.4701 216.932 95.6736 214.414C94.1537 212.317 94.6236 209.388 96.7236 207.871C98.8236 206.354 101.753 206.823 103.273 208.924C103.937 209.846 104.987 210.397 106.12 210.397H108.69C110.652 210.397 112.227 208.822 112.227 206.881C112.227 204.941 110.652 203.363 108.69 203.363H106.866C99.7635 203.363 93.9879 197.582 93.9879 190.474C93.9879 184.676 97.8293 179.76 103.08 178.143V176.896C103.08 174.307 105.18 172.209 107.778 172.209C110.375 172.209 112.476 174.307 112.476 176.896V177.946C115.433 178.665 118.086 180.42 119.91 182.937C121.402 185.035 120.932 187.967 118.832 189.484C116.732 191.001 113.803 190.529 112.31 188.431C111.619 187.508 110.569 186.956 109.436 186.956H106.866C104.932 186.956 103.356 188.534 103.356 190.474C103.356 192.411 104.931 193.989 106.866 193.989H108.69C115.819 193.989 121.595 199.773 121.595 206.881ZM107.777 232.272C89.2617 232.272 74.1726 217.202 74.1726 198.676C74.1726 180.152 89.2617 165.08 107.777 165.08C126.293 165.08 141.382 180.152 141.382 198.676C141.382 217.203 126.293 232.272 107.777 232.272ZM107.777 155.706C131.461 155.706 150.75 174.981 150.75 198.676C150.75 222.37 131.46 241.646 107.777 241.646C84.0943 241.646 64.8047 222.371 64.8047 198.676C64.8047 174.981 84.0937 155.706 107.777 155.706ZM107.777 246.493C81.4131 246.493 59.9684 225.043 59.9684 198.676C59.9684 172.312 81.4131 150.861 107.777 150.861C134.142 150.861 155.586 172.312 155.586 198.676C155.586 225.043 134.142 246.493 107.777 246.493ZM62.3174 289.455C32.0291 289.455 9.39609 279.139 9.39609 269.914V256.511C12.7125 258.932 16.8574 261.11 21.8045 262.989C32.9689 267.234 47.3121 269.571 62.2348 269.571C84.2877 269.571 104.102 264.575 115.239 256.38V269.913C115.239 279.139 92.6057 289.455 62.3174 289.455ZM9.39551 213.024V197.833C11.6895 199.549 14.3977 201.144 17.4926 202.589C26.6121 206.856 38.7164 209.683 51.8432 210.664C53.4463 218.043 56.4305 224.893 60.576 230.923C32.775 230.575 11.9104 221.555 9.39551 213.024ZM9.39551 227.254C12.7119 229.675 16.8568 231.855 21.8039 233.731C32.9684 237.976 47.3115 240.314 62.2342 240.314C64.3066 240.314 66.3797 240.253 68.4521 240.162C76.3559 247.643 86.3596 252.902 97.4689 254.936C87.8795 258.261 75.4435 260.198 62.2342 260.198C33.6041 260.198 11.9654 250.984 9.39551 242.285V227.254ZM62.3174 162.604C62.6766 162.604 63.0639 162.612 63.423 162.615C55.4086 172.461 50.6004 185.016 50.6004 198.676C50.6004 199.511 50.6004 200.34 50.6555 201.166C25.7561 198.936 9.39609 189.899 9.39609 182.142C9.39551 172.92 32.0291 162.604 62.3174 162.604ZM164.982 198.676C164.982 224.36 147.959 246.139 124.607 253.342V269.914C124.607 286.399 97.8287 298.829 62.3174 298.829C26.7785 298.829 0 286.399 0 269.914V182.142C0 165.657 26.7785 153.227 62.3174 153.227C65.7721 153.227 69.2262 153.362 72.5977 153.608C82.3254 146.017 94.5398 141.485 107.777 141.485C139.31 141.485 164.982 167.141 164.982 198.676Z" fill="black"/>
<rect x="90" y="172" width="35" height="54" fill="#FDB800"/>
<path d="M123.998 188.659V192.136C123.998 192.455 123.898 192.716 123.697 192.92C123.497 193.125 123.241 193.227 122.929 193.227H117.317C116.805 196.5 115.368 199.159 113.008 201.205C110.647 203.25 107.574 204.5 103.788 204.955C107.507 209 112.618 215.091 119.121 223.227C119.432 223.591 119.477 223.977 119.254 224.386C119.076 224.795 118.753 225 118.286 225H111.772C111.415 225 111.137 224.864 110.936 224.591C104.122 216.25 98.5765 209.761 94.3006 205.125C94.1002 204.92 94 204.67 94 204.375V200.045C94 199.75 94.1058 199.494 94.3173 199.278C94.5289 199.063 94.7795 198.955 95.069 198.955H98.8103C101.75 198.955 104.116 198.466 105.909 197.489C107.702 196.511 108.843 195.091 109.333 193.227H95.069C94.7572 193.227 94.5011 193.125 94.3006 192.92C94.1002 192.716 94 192.455 94 192.136V188.659C94 188.341 94.1002 188.08 94.3006 187.875C94.5011 187.67 94.7572 187.568 95.069 187.568H108.865C107.596 185 104.612 183.716 99.9127 183.716H95.069C94.7795 183.716 94.5289 183.608 94.3173 183.392C94.1058 183.176 94 182.92 94 182.625V178.091C94 177.773 94.1002 177.511 94.3006 177.307C94.5011 177.102 94.7572 177 95.069 177H122.862C123.174 177 123.43 177.102 123.63 177.307C123.831 177.511 123.931 177.773 123.931 178.091V181.568C123.931 181.886 123.831 182.148 123.63 182.352C123.43 182.557 123.174 182.659 122.862 182.659H115.079C116.125 184.045 116.838 185.682 117.217 187.568H122.929C123.241 187.568 123.497 187.67 123.697 187.875C123.898 188.08 123.998 188.341 123.998 188.659Z" fill="black"/>
</svg>
